<mxfile host="app.diagrams.net" agent="Mozilla/5.0 (Windows NT 10.0; Win64; x64) AppleWebKit/537.36 (KHTML, like Gecko) Chrome/131.0.0.0 Safari/537.36 Edg/131.0.0.0" version="24.9.3">
  <diagram name="Page-1" id="94cD6ZTa3Vw65mxtf7fP">
    <mxGraphModel dx="337" dy="1067" grid="1" gridSize="10" guides="1" tooltips="1" connect="1" arrows="1" fold="1" page="1" pageScale="1" pageWidth="850" pageHeight="1100" math="0" shadow="0">
      <root>
        <mxCell id="0" />
        <mxCell id="1" parent="0" />
        <mxCell id="w8awD3d66yjwIOf7sVY0-1" value="void exec_cmd(char **cmd_vector, char* argv)" style="swimlane;whiteSpace=wrap;html=1;swimlaneFillColor=default;" vertex="1" collapsed="1" parent="1">
          <mxGeometry x="1700" y="320" width="300" height="30" as="geometry">
            <mxRectangle x="1700" y="320" width="850" height="1020" as="alternateBounds" />
          </mxGeometry>
        </mxCell>
        <mxCell id="w8awD3d66yjwIOf7sVY0-2" style="edgeStyle=orthogonalEdgeStyle;rounded=0;orthogonalLoop=1;jettySize=auto;html=1;exitX=0.5;exitY=1;exitDx=0;exitDy=0;entryX=0.5;entryY=0;entryDx=0;entryDy=0;" edge="1" parent="w8awD3d66yjwIOf7sVY0-1" source="w8awD3d66yjwIOf7sVY0-3" target="w8awD3d66yjwIOf7sVY0-5">
          <mxGeometry relative="1" as="geometry">
            <mxPoint x="425.272727272727" y="159.9999999999999" as="targetPoint" />
          </mxGeometry>
        </mxCell>
        <mxCell id="w8awD3d66yjwIOf7sVY0-3" value="start" style="rounded=1;whiteSpace=wrap;html=1;" vertex="1" parent="w8awD3d66yjwIOf7sVY0-1">
          <mxGeometry x="70" y="40" width="120" height="60" as="geometry" />
        </mxCell>
        <mxCell id="w8awD3d66yjwIOf7sVY0-4" style="edgeStyle=orthogonalEdgeStyle;rounded=0;orthogonalLoop=1;jettySize=auto;html=1;exitX=0.5;exitY=1;exitDx=0;exitDy=0;entryX=0.5;entryY=0;entryDx=0;entryDy=0;" edge="1" parent="w8awD3d66yjwIOf7sVY0-1" source="w8awD3d66yjwIOf7sVY0-5" target="w8awD3d66yjwIOf7sVY0-7">
          <mxGeometry relative="1" as="geometry" />
        </mxCell>
        <mxCell id="w8awD3d66yjwIOf7sVY0-5" value="pid_t pid&lt;br&gt;int status" style="rounded=0;whiteSpace=wrap;html=1;" vertex="1" parent="w8awD3d66yjwIOf7sVY0-1">
          <mxGeometry x="70" y="140" width="120" height="60" as="geometry" />
        </mxCell>
        <mxCell id="w8awD3d66yjwIOf7sVY0-6" style="edgeStyle=orthogonalEdgeStyle;rounded=0;orthogonalLoop=1;jettySize=auto;html=1;exitX=0.5;exitY=1;exitDx=0;exitDy=0;entryX=0.5;entryY=0;entryDx=0;entryDy=0;" edge="1" parent="w8awD3d66yjwIOf7sVY0-1" source="w8awD3d66yjwIOf7sVY0-7" target="w8awD3d66yjwIOf7sVY0-11">
          <mxGeometry relative="1" as="geometry" />
        </mxCell>
        <mxCell id="w8awD3d66yjwIOf7sVY0-7" value="pid = fork()" style="rounded=0;whiteSpace=wrap;html=1;" vertex="1" parent="w8awD3d66yjwIOf7sVY0-1">
          <mxGeometry x="70" y="260" width="120" height="60" as="geometry" />
        </mxCell>
        <mxCell id="w8awD3d66yjwIOf7sVY0-8" value="pid == -1" style="edgeStyle=orthogonalEdgeStyle;rounded=0;orthogonalLoop=1;jettySize=auto;html=1;exitX=0.5;exitY=1;exitDx=0;exitDy=0;entryX=0;entryY=0.5;entryDx=0;entryDy=0;" edge="1" parent="w8awD3d66yjwIOf7sVY0-1" source="w8awD3d66yjwIOf7sVY0-11" target="w8awD3d66yjwIOf7sVY0-13">
          <mxGeometry x="0.3953" relative="1" as="geometry">
            <mxPoint as="offset" />
          </mxGeometry>
        </mxCell>
        <mxCell id="w8awD3d66yjwIOf7sVY0-9" value="pid == 0" style="edgeStyle=orthogonalEdgeStyle;rounded=0;orthogonalLoop=1;jettySize=auto;html=1;exitX=0.5;exitY=1;exitDx=0;exitDy=0;entryX=0;entryY=0.5;entryDx=0;entryDy=0;" edge="1" parent="w8awD3d66yjwIOf7sVY0-1" source="w8awD3d66yjwIOf7sVY0-11" target="w8awD3d66yjwIOf7sVY0-16">
          <mxGeometry x="0.6338" relative="1" as="geometry">
            <mxPoint x="150" y="720" as="targetPoint" />
            <mxPoint as="offset" />
          </mxGeometry>
        </mxCell>
        <mxCell id="w8awD3d66yjwIOf7sVY0-10" value="else (parent process)" style="edgeStyle=orthogonalEdgeStyle;rounded=0;orthogonalLoop=1;jettySize=auto;html=1;exitX=0.5;exitY=1;exitDx=0;exitDy=0;entryX=0;entryY=0.5;entryDx=0;entryDy=0;" edge="1" parent="w8awD3d66yjwIOf7sVY0-1" source="w8awD3d66yjwIOf7sVY0-11" target="w8awD3d66yjwIOf7sVY0-20">
          <mxGeometry x="0.75" relative="1" as="geometry">
            <mxPoint as="offset" />
          </mxGeometry>
        </mxCell>
        <mxCell id="w8awD3d66yjwIOf7sVY0-11" value="pid ?" style="shape=hexagon;perimeter=hexagonPerimeter2;whiteSpace=wrap;html=1;fixedSize=1;" vertex="1" parent="w8awD3d66yjwIOf7sVY0-1">
          <mxGeometry x="70" y="380" width="120" height="80" as="geometry" />
        </mxCell>
        <mxCell id="w8awD3d66yjwIOf7sVY0-12" style="edgeStyle=orthogonalEdgeStyle;rounded=0;orthogonalLoop=1;jettySize=auto;html=1;exitX=1;exitY=0.5;exitDx=0;exitDy=0;entryX=0;entryY=0.5;entryDx=0;entryDy=0;" edge="1" parent="w8awD3d66yjwIOf7sVY0-1" source="w8awD3d66yjwIOf7sVY0-13" target="w8awD3d66yjwIOf7sVY0-14">
          <mxGeometry relative="1" as="geometry">
            <mxPoint x="440" y="500" as="targetPoint" />
          </mxGeometry>
        </mxCell>
        <mxCell id="w8awD3d66yjwIOf7sVY0-13" value="perror(argv)" style="rounded=0;whiteSpace=wrap;html=1;" vertex="1" parent="w8awD3d66yjwIOf7sVY0-1">
          <mxGeometry x="255" y="470" width="120" height="60" as="geometry" />
        </mxCell>
        <mxCell id="w8awD3d66yjwIOf7sVY0-14" value="return" style="rounded=1;whiteSpace=wrap;html=1;" vertex="1" parent="w8awD3d66yjwIOf7sVY0-1">
          <mxGeometry x="715" y="470" width="120" height="60" as="geometry" />
        </mxCell>
        <mxCell id="w8awD3d66yjwIOf7sVY0-15" value="true" style="edgeStyle=orthogonalEdgeStyle;rounded=0;orthogonalLoop=1;jettySize=auto;html=1;exitX=0.5;exitY=1;exitDx=0;exitDy=0;entryX=0;entryY=0.5;entryDx=0;entryDy=0;" edge="1" parent="w8awD3d66yjwIOf7sVY0-1" source="w8awD3d66yjwIOf7sVY0-16" target="w8awD3d66yjwIOf7sVY0-18">
          <mxGeometry x="0.1579" relative="1" as="geometry">
            <mxPoint as="offset" />
          </mxGeometry>
        </mxCell>
        <mxCell id="w8awD3d66yjwIOf7sVY0-16" value="if execv(cmd_vector[0], cmd_vector, NULL) == -1" style="shape=hexagon;perimeter=hexagonPerimeter2;whiteSpace=wrap;html=1;fixedSize=1;" vertex="1" parent="w8awD3d66yjwIOf7sVY0-1">
          <mxGeometry x="255" y="550" width="120" height="80" as="geometry" />
        </mxCell>
        <mxCell id="w8awD3d66yjwIOf7sVY0-17" style="edgeStyle=orthogonalEdgeStyle;rounded=0;orthogonalLoop=1;jettySize=auto;html=1;exitX=1;exitY=0.5;exitDx=0;exitDy=0;entryX=0;entryY=0.5;entryDx=0;entryDy=0;" edge="1" parent="w8awD3d66yjwIOf7sVY0-1" source="w8awD3d66yjwIOf7sVY0-18" target="w8awD3d66yjwIOf7sVY0-19">
          <mxGeometry relative="1" as="geometry">
            <mxPoint x="550" y="660" as="targetPoint" />
          </mxGeometry>
        </mxCell>
        <mxCell id="w8awD3d66yjwIOf7sVY0-18" value="perror(argv)" style="rounded=0;whiteSpace=wrap;html=1;" vertex="1" parent="w8awD3d66yjwIOf7sVY0-1">
          <mxGeometry x="380" y="630" width="120" height="60" as="geometry" />
        </mxCell>
        <mxCell id="w8awD3d66yjwIOf7sVY0-19" value="exit(EXIT_FAILURE)" style="rounded=1;whiteSpace=wrap;html=1;" vertex="1" parent="w8awD3d66yjwIOf7sVY0-1">
          <mxGeometry x="715" y="630" width="120" height="60" as="geometry" />
        </mxCell>
        <mxCell id="w8awD3d66yjwIOf7sVY0-20" value="wait(&amp;amp;status)" style="rounded=0;whiteSpace=wrap;html=1;" vertex="1" parent="w8awD3d66yjwIOf7sVY0-1">
          <mxGeometry x="260" y="790" width="120" height="60" as="geometry" />
        </mxCell>
        <mxCell id="w8awD3d66yjwIOf7sVY0-21" value="char *_getenv(const char *name)" style="swimlane;whiteSpace=wrap;html=1;swimlaneFillColor=default;" vertex="1" collapsed="1" parent="1">
          <mxGeometry x="1700" y="280" width="220" height="30" as="geometry">
            <mxRectangle x="1700" y="280" width="830" height="810" as="alternateBounds" />
          </mxGeometry>
        </mxCell>
        <mxCell id="w8awD3d66yjwIOf7sVY0-22" style="edgeStyle=orthogonalEdgeStyle;rounded=0;orthogonalLoop=1;jettySize=auto;html=1;exitX=0.5;exitY=1;exitDx=0;exitDy=0;entryX=0.5;entryY=0;entryDx=0;entryDy=0;" edge="1" parent="w8awD3d66yjwIOf7sVY0-21" source="w8awD3d66yjwIOf7sVY0-23" target="w8awD3d66yjwIOf7sVY0-25">
          <mxGeometry relative="1" as="geometry" />
        </mxCell>
        <mxCell id="w8awD3d66yjwIOf7sVY0-23" value="start" style="rounded=1;whiteSpace=wrap;html=1;" vertex="1" parent="w8awD3d66yjwIOf7sVY0-21">
          <mxGeometry x="110" y="45" width="120" height="60" as="geometry" />
        </mxCell>
        <mxCell id="w8awD3d66yjwIOf7sVY0-24" style="edgeStyle=orthogonalEdgeStyle;rounded=0;orthogonalLoop=1;jettySize=auto;html=1;exitX=0.5;exitY=1;exitDx=0;exitDy=0;entryX=0.5;entryY=0;entryDx=0;entryDy=0;" edge="1" parent="w8awD3d66yjwIOf7sVY0-21" source="w8awD3d66yjwIOf7sVY0-25" target="w8awD3d66yjwIOf7sVY0-28">
          <mxGeometry relative="1" as="geometry" />
        </mxCell>
        <mxCell id="w8awD3d66yjwIOf7sVY0-25" value="int i = 0&lt;br&gt;int flag = 0&lt;br&gt;size_t j, len = strlen(name)" style="rounded=0;whiteSpace=wrap;html=1;" vertex="1" parent="w8awD3d66yjwIOf7sVY0-21">
          <mxGeometry x="110" y="155" width="120" height="60" as="geometry" />
        </mxCell>
        <mxCell id="w8awD3d66yjwIOf7sVY0-26" value="true" style="edgeStyle=orthogonalEdgeStyle;rounded=0;orthogonalLoop=1;jettySize=auto;html=1;exitX=0.5;exitY=1;exitDx=0;exitDy=0;entryX=0.5;entryY=0;entryDx=0;entryDy=0;" edge="1" parent="w8awD3d66yjwIOf7sVY0-21" source="w8awD3d66yjwIOf7sVY0-28" target="w8awD3d66yjwIOf7sVY0-31">
          <mxGeometry relative="1" as="geometry" />
        </mxCell>
        <mxCell id="w8awD3d66yjwIOf7sVY0-27" value="false" style="edgeStyle=orthogonalEdgeStyle;rounded=0;orthogonalLoop=1;jettySize=auto;html=1;exitX=1;exitY=0.5;exitDx=0;exitDy=0;entryX=0;entryY=0.5;entryDx=0;entryDy=0;" edge="1" parent="w8awD3d66yjwIOf7sVY0-21" source="w8awD3d66yjwIOf7sVY0-28" target="w8awD3d66yjwIOf7sVY0-37">
          <mxGeometry relative="1" as="geometry" />
        </mxCell>
        <mxCell id="w8awD3d66yjwIOf7sVY0-28" value="while environ[i]" style="shape=hexagon;perimeter=hexagonPerimeter2;whiteSpace=wrap;html=1;fixedSize=1;" vertex="1" parent="w8awD3d66yjwIOf7sVY0-21">
          <mxGeometry x="110" y="275" width="120" height="80" as="geometry" />
        </mxCell>
        <mxCell id="w8awD3d66yjwIOf7sVY0-29" value="true" style="edgeStyle=orthogonalEdgeStyle;rounded=0;orthogonalLoop=1;jettySize=auto;html=1;exitX=1;exitY=0.5;exitDx=0;exitDy=0;entryX=0;entryY=0.5;entryDx=0;entryDy=0;" edge="1" parent="w8awD3d66yjwIOf7sVY0-21" source="w8awD3d66yjwIOf7sVY0-31" target="w8awD3d66yjwIOf7sVY0-34">
          <mxGeometry relative="1" as="geometry" />
        </mxCell>
        <mxCell id="w8awD3d66yjwIOf7sVY0-30" style="edgeStyle=orthogonalEdgeStyle;rounded=0;orthogonalLoop=1;jettySize=auto;html=1;exitX=0.5;exitY=1;exitDx=0;exitDy=0;entryX=0.5;entryY=0;entryDx=0;entryDy=0;" edge="1" parent="w8awD3d66yjwIOf7sVY0-21" source="w8awD3d66yjwIOf7sVY0-31" target="w8awD3d66yjwIOf7sVY0-39">
          <mxGeometry relative="1" as="geometry">
            <mxPoint x="170" y="620" as="targetPoint" />
          </mxGeometry>
        </mxCell>
        <mxCell id="w8awD3d66yjwIOf7sVY0-31" value="for (j = 0; j &amp;lt; len; j++)" style="shape=hexagon;perimeter=hexagonPerimeter2;whiteSpace=wrap;html=1;fixedSize=1;" vertex="1" parent="w8awD3d66yjwIOf7sVY0-21">
          <mxGeometry x="110" y="415" width="120" height="80" as="geometry" />
        </mxCell>
        <mxCell id="w8awD3d66yjwIOf7sVY0-32" value="true" style="edgeStyle=orthogonalEdgeStyle;rounded=0;orthogonalLoop=1;jettySize=auto;html=1;exitX=1;exitY=0.5;exitDx=0;exitDy=0;entryX=0;entryY=0.5;entryDx=0;entryDy=0;" edge="1" parent="w8awD3d66yjwIOf7sVY0-21" source="w8awD3d66yjwIOf7sVY0-34" target="w8awD3d66yjwIOf7sVY0-36">
          <mxGeometry relative="1" as="geometry" />
        </mxCell>
        <mxCell id="w8awD3d66yjwIOf7sVY0-33" value="false" style="edgeStyle=orthogonalEdgeStyle;rounded=0;orthogonalLoop=1;jettySize=auto;html=1;exitX=0.5;exitY=0;exitDx=0;exitDy=0;entryX=0.5;entryY=0;entryDx=0;entryDy=0;" edge="1" parent="w8awD3d66yjwIOf7sVY0-21" source="w8awD3d66yjwIOf7sVY0-34" target="w8awD3d66yjwIOf7sVY0-31">
          <mxGeometry relative="1" as="geometry" />
        </mxCell>
        <mxCell id="w8awD3d66yjwIOf7sVY0-34" value="environ[i][j] &lt;br&gt;!= &lt;br&gt;name[j] ?" style="shape=hexagon;perimeter=hexagonPerimeter2;whiteSpace=wrap;html=1;fixedSize=1;" vertex="1" parent="w8awD3d66yjwIOf7sVY0-21">
          <mxGeometry x="355" y="415" width="120" height="80" as="geometry" />
        </mxCell>
        <mxCell id="w8awD3d66yjwIOf7sVY0-35" style="edgeStyle=orthogonalEdgeStyle;rounded=0;orthogonalLoop=1;jettySize=auto;html=1;exitX=0.5;exitY=1;exitDx=0;exitDy=0;entryX=1;entryY=0.5;entryDx=0;entryDy=0;" edge="1" parent="w8awD3d66yjwIOf7sVY0-21" source="w8awD3d66yjwIOf7sVY0-36" target="w8awD3d66yjwIOf7sVY0-39">
          <mxGeometry relative="1" as="geometry">
            <mxPoint x="320" y="620" as="targetPoint" />
          </mxGeometry>
        </mxCell>
        <mxCell id="w8awD3d66yjwIOf7sVY0-36" value="break for" style="rounded=1;whiteSpace=wrap;html=1;" vertex="1" parent="w8awD3d66yjwIOf7sVY0-21">
          <mxGeometry x="540" y="425" width="120" height="60" as="geometry" />
        </mxCell>
        <mxCell id="w8awD3d66yjwIOf7sVY0-37" value="return (flag == 1 ? &amp;amp;environ[i][j+1] : NULL)" style="rounded=1;whiteSpace=wrap;html=1;" vertex="1" parent="w8awD3d66yjwIOf7sVY0-21">
          <mxGeometry x="660" y="285" width="120" height="60" as="geometry" />
        </mxCell>
        <mxCell id="w8awD3d66yjwIOf7sVY0-38" value="false" style="edgeStyle=orthogonalEdgeStyle;rounded=0;orthogonalLoop=1;jettySize=auto;html=1;exitX=0.5;exitY=1;exitDx=0;exitDy=0;entryX=0.5;entryY=0;entryDx=0;entryDy=0;" edge="1" parent="w8awD3d66yjwIOf7sVY0-21" source="w8awD3d66yjwIOf7sVY0-39" target="w8awD3d66yjwIOf7sVY0-46">
          <mxGeometry x="0.3333" relative="1" as="geometry">
            <mxPoint as="offset" />
          </mxGeometry>
        </mxCell>
        <mxCell id="w8awD3d66yjwIOf7sVY0-39" value="j == len &lt;br&gt;&amp;amp;&amp;amp;&lt;br&gt;environ[i][j] == &#39;=&#39;" style="shape=hexagon;perimeter=hexagonPerimeter2;whiteSpace=wrap;html=1;fixedSize=1;" vertex="1" parent="w8awD3d66yjwIOf7sVY0-21">
          <mxGeometry x="110" y="550" width="120" height="80" as="geometry" />
        </mxCell>
        <mxCell id="w8awD3d66yjwIOf7sVY0-40" style="edgeStyle=orthogonalEdgeStyle;rounded=0;orthogonalLoop=1;jettySize=auto;html=1;exitX=1;exitY=0.5;exitDx=0;exitDy=0;entryX=0;entryY=0.5;entryDx=0;entryDy=0;" edge="1" parent="w8awD3d66yjwIOf7sVY0-21" source="w8awD3d66yjwIOf7sVY0-41" target="w8awD3d66yjwIOf7sVY0-44">
          <mxGeometry relative="1" as="geometry" />
        </mxCell>
        <mxCell id="w8awD3d66yjwIOf7sVY0-41" value="flag = 1" style="rounded=0;whiteSpace=wrap;html=1;" vertex="1" parent="w8awD3d66yjwIOf7sVY0-21">
          <mxGeometry x="310" y="640" width="120" height="60" as="geometry" />
        </mxCell>
        <mxCell id="w8awD3d66yjwIOf7sVY0-42" value="true" style="edgeStyle=orthogonalEdgeStyle;rounded=0;orthogonalLoop=1;jettySize=auto;html=1;exitX=0.5;exitY=1;exitDx=0;exitDy=0;entryX=0;entryY=0.5;entryDx=0;entryDy=0;" edge="1" parent="w8awD3d66yjwIOf7sVY0-21" source="w8awD3d66yjwIOf7sVY0-39" target="w8awD3d66yjwIOf7sVY0-41">
          <mxGeometry x="0.2222" relative="1" as="geometry">
            <mxPoint x="310" y="680" as="targetPoint" />
            <mxPoint as="offset" />
          </mxGeometry>
        </mxCell>
        <mxCell id="w8awD3d66yjwIOf7sVY0-43" style="edgeStyle=orthogonalEdgeStyle;rounded=0;orthogonalLoop=1;jettySize=auto;html=1;exitX=1;exitY=0.5;exitDx=0;exitDy=0;entryX=0.5;entryY=1;entryDx=0;entryDy=0;" edge="1" parent="w8awD3d66yjwIOf7sVY0-21" source="w8awD3d66yjwIOf7sVY0-44" target="w8awD3d66yjwIOf7sVY0-37">
          <mxGeometry relative="1" as="geometry" />
        </mxCell>
        <mxCell id="w8awD3d66yjwIOf7sVY0-44" value="break while" style="rounded=1;whiteSpace=wrap;html=1;" vertex="1" parent="w8awD3d66yjwIOf7sVY0-21">
          <mxGeometry x="540" y="640" width="120" height="60" as="geometry" />
        </mxCell>
        <mxCell id="w8awD3d66yjwIOf7sVY0-45" style="edgeStyle=orthogonalEdgeStyle;rounded=0;orthogonalLoop=1;jettySize=auto;html=1;exitX=0;exitY=0.5;exitDx=0;exitDy=0;entryX=0;entryY=0.5;entryDx=0;entryDy=0;" edge="1" parent="w8awD3d66yjwIOf7sVY0-21" source="w8awD3d66yjwIOf7sVY0-46" target="w8awD3d66yjwIOf7sVY0-28">
          <mxGeometry relative="1" as="geometry">
            <Array as="points">
              <mxPoint x="50" y="750" />
              <mxPoint x="50" y="315" />
            </Array>
          </mxGeometry>
        </mxCell>
        <mxCell id="w8awD3d66yjwIOf7sVY0-46" value="i++" style="rounded=0;whiteSpace=wrap;html=1;" vertex="1" parent="w8awD3d66yjwIOf7sVY0-21">
          <mxGeometry x="110" y="720" width="120" height="60" as="geometry" />
        </mxCell>
        <mxCell id="w8awD3d66yjwIOf7sVY0-47" value="void check_for_exe_in_path(char *cmd_vector_item, char *argv)" style="swimlane;whiteSpace=wrap;html=1;swimlaneFillColor=default;" vertex="1" collapsed="1" parent="1">
          <mxGeometry x="1700" y="240" width="400" height="30" as="geometry">
            <mxRectangle x="1700" y="240" width="1180" height="2220" as="alternateBounds" />
          </mxGeometry>
        </mxCell>
        <mxCell id="w8awD3d66yjwIOf7sVY0-48" style="edgeStyle=orthogonalEdgeStyle;rounded=0;orthogonalLoop=1;jettySize=auto;html=1;exitX=0.5;exitY=1;exitDx=0;exitDy=0;entryX=0.5;entryY=0;entryDx=0;entryDy=0;" edge="1" parent="w8awD3d66yjwIOf7sVY0-47" source="w8awD3d66yjwIOf7sVY0-49" target="w8awD3d66yjwIOf7sVY0-51">
          <mxGeometry relative="1" as="geometry" />
        </mxCell>
        <mxCell id="w8awD3d66yjwIOf7sVY0-49" value="start" style="rounded=1;whiteSpace=wrap;html=1;" vertex="1" parent="w8awD3d66yjwIOf7sVY0-47">
          <mxGeometry x="137" y="40" width="120" height="60" as="geometry" />
        </mxCell>
        <mxCell id="w8awD3d66yjwIOf7sVY0-50" style="edgeStyle=orthogonalEdgeStyle;rounded=0;orthogonalLoop=1;jettySize=auto;html=1;exitX=0.5;exitY=1;exitDx=0;exitDy=0;entryX=0.5;entryY=0;entryDx=0;entryDy=0;" edge="1" parent="w8awD3d66yjwIOf7sVY0-47" source="w8awD3d66yjwIOf7sVY0-51" target="w8awD3d66yjwIOf7sVY0-53">
          <mxGeometry relative="1" as="geometry">
            <mxPoint x="197" y="310" as="targetPoint" />
          </mxGeometry>
        </mxCell>
        <mxCell id="w8awD3d66yjwIOf7sVY0-51" value="char *path&lt;div&gt;char *path_copy&lt;/div&gt;&lt;div&gt;char *path_delim = &quot;:&quot;&lt;/div&gt;&lt;div&gt;char *path_token&lt;/div&gt;&lt;div&gt;char *possible_path&lt;/div&gt;&lt;div&gt;size_t pp_len&lt;/div&gt;" style="rounded=0;whiteSpace=wrap;html=1;" vertex="1" parent="w8awD3d66yjwIOf7sVY0-47">
          <mxGeometry x="115" y="150" width="165" height="110" as="geometry" />
        </mxCell>
        <mxCell id="w8awD3d66yjwIOf7sVY0-52" style="edgeStyle=orthogonalEdgeStyle;rounded=0;orthogonalLoop=1;jettySize=auto;html=1;exitX=0.5;exitY=1;exitDx=0;exitDy=0;entryX=0.5;entryY=0;entryDx=0;entryDy=0;" edge="1" parent="w8awD3d66yjwIOf7sVY0-47" source="w8awD3d66yjwIOf7sVY0-53" target="w8awD3d66yjwIOf7sVY0-55">
          <mxGeometry relative="1" as="geometry" />
        </mxCell>
        <mxCell id="w8awD3d66yjwIOf7sVY0-53" value="path = _getenv(PATH)" style="rounded=0;whiteSpace=wrap;html=1;" vertex="1" parent="w8awD3d66yjwIOf7sVY0-47">
          <mxGeometry x="137" y="320" width="120" height="60" as="geometry" />
        </mxCell>
        <mxCell id="w8awD3d66yjwIOf7sVY0-54" value="false" style="edgeStyle=orthogonalEdgeStyle;rounded=0;orthogonalLoop=1;jettySize=auto;html=1;exitX=0.5;exitY=1;exitDx=0;exitDy=0;entryX=0.5;entryY=0;entryDx=0;entryDy=0;" edge="1" parent="w8awD3d66yjwIOf7sVY0-47" source="w8awD3d66yjwIOf7sVY0-55" target="w8awD3d66yjwIOf7sVY0-61">
          <mxGeometry relative="1" as="geometry" />
        </mxCell>
        <mxCell id="w8awD3d66yjwIOf7sVY0-55" value="if !path" style="shape=hexagon;perimeter=hexagonPerimeter2;whiteSpace=wrap;html=1;fixedSize=1;" vertex="1" parent="w8awD3d66yjwIOf7sVY0-47">
          <mxGeometry x="137" y="440" width="120" height="80" as="geometry" />
        </mxCell>
        <mxCell id="w8awD3d66yjwIOf7sVY0-56" value="return" style="rounded=1;whiteSpace=wrap;html=1;" vertex="1" parent="w8awD3d66yjwIOf7sVY0-47">
          <mxGeometry x="912" y="450" width="120" height="60" as="geometry" />
        </mxCell>
        <mxCell id="w8awD3d66yjwIOf7sVY0-57" style="edgeStyle=orthogonalEdgeStyle;rounded=0;orthogonalLoop=1;jettySize=auto;html=1;exitX=1;exitY=0.5;exitDx=0;exitDy=0;entryX=0;entryY=0.5;entryDx=0;entryDy=0;" edge="1" parent="w8awD3d66yjwIOf7sVY0-47" source="w8awD3d66yjwIOf7sVY0-58" target="w8awD3d66yjwIOf7sVY0-56">
          <mxGeometry relative="1" as="geometry" />
        </mxCell>
        <mxCell id="w8awD3d66yjwIOf7sVY0-58" value="Customized Error message" style="rounded=0;whiteSpace=wrap;html=1;" vertex="1" parent="w8awD3d66yjwIOf7sVY0-47">
          <mxGeometry x="412" y="450" width="120" height="60" as="geometry" />
        </mxCell>
        <mxCell id="w8awD3d66yjwIOf7sVY0-59" value="true" style="edgeStyle=orthogonalEdgeStyle;rounded=0;orthogonalLoop=1;jettySize=auto;html=1;exitX=1;exitY=0.5;exitDx=0;exitDy=0;entryX=0;entryY=0.5;entryDx=0;entryDy=0;" edge="1" parent="w8awD3d66yjwIOf7sVY0-47" source="w8awD3d66yjwIOf7sVY0-55" target="w8awD3d66yjwIOf7sVY0-58">
          <mxGeometry relative="1" as="geometry">
            <mxPoint x="590" y="620" as="targetPoint" />
          </mxGeometry>
        </mxCell>
        <mxCell id="w8awD3d66yjwIOf7sVY0-60" style="edgeStyle=orthogonalEdgeStyle;rounded=0;orthogonalLoop=1;jettySize=auto;html=1;exitX=0.5;exitY=1;exitDx=0;exitDy=0;entryX=0.5;entryY=0;entryDx=0;entryDy=0;" edge="1" parent="w8awD3d66yjwIOf7sVY0-47" source="w8awD3d66yjwIOf7sVY0-61" target="w8awD3d66yjwIOf7sVY0-64">
          <mxGeometry relative="1" as="geometry" />
        </mxCell>
        <mxCell id="w8awD3d66yjwIOf7sVY0-61" value="path_copy = strdup(path)" style="rounded=0;whiteSpace=wrap;html=1;" vertex="1" parent="w8awD3d66yjwIOf7sVY0-47">
          <mxGeometry x="137.5" y="580" width="120" height="60" as="geometry" />
        </mxCell>
        <mxCell id="w8awD3d66yjwIOf7sVY0-62" value="true" style="edgeStyle=orthogonalEdgeStyle;rounded=0;orthogonalLoop=1;jettySize=auto;html=1;exitX=1;exitY=0.5;exitDx=0;exitDy=0;entryX=0;entryY=0.5;entryDx=0;entryDy=0;" edge="1" parent="w8awD3d66yjwIOf7sVY0-47" source="w8awD3d66yjwIOf7sVY0-64" target="w8awD3d66yjwIOf7sVY0-66">
          <mxGeometry relative="1" as="geometry" />
        </mxCell>
        <mxCell id="w8awD3d66yjwIOf7sVY0-63" value="false" style="edgeStyle=orthogonalEdgeStyle;rounded=0;orthogonalLoop=1;jettySize=auto;html=1;exitX=0.5;exitY=1;exitDx=0;exitDy=0;entryX=0.5;entryY=0;entryDx=0;entryDy=0;" edge="1" parent="w8awD3d66yjwIOf7sVY0-47" source="w8awD3d66yjwIOf7sVY0-64" target="w8awD3d66yjwIOf7sVY0-69">
          <mxGeometry relative="1" as="geometry" />
        </mxCell>
        <mxCell id="w8awD3d66yjwIOf7sVY0-64" value="if !path_copy" style="shape=hexagon;perimeter=hexagonPerimeter2;whiteSpace=wrap;html=1;fixedSize=1;" vertex="1" parent="w8awD3d66yjwIOf7sVY0-47">
          <mxGeometry x="137.5" y="690" width="120" height="80" as="geometry" />
        </mxCell>
        <mxCell id="w8awD3d66yjwIOf7sVY0-65" style="edgeStyle=orthogonalEdgeStyle;rounded=0;orthogonalLoop=1;jettySize=auto;html=1;exitX=1;exitY=0.5;exitDx=0;exitDy=0;entryX=0;entryY=0.5;entryDx=0;entryDy=0;" edge="1" parent="w8awD3d66yjwIOf7sVY0-47" source="w8awD3d66yjwIOf7sVY0-66" target="w8awD3d66yjwIOf7sVY0-67">
          <mxGeometry relative="1" as="geometry" />
        </mxCell>
        <mxCell id="w8awD3d66yjwIOf7sVY0-66" value="Customized Error message" style="rounded=0;whiteSpace=wrap;html=1;" vertex="1" parent="w8awD3d66yjwIOf7sVY0-47">
          <mxGeometry x="412" y="700" width="120" height="60" as="geometry" />
        </mxCell>
        <mxCell id="w8awD3d66yjwIOf7sVY0-67" value="return" style="rounded=1;whiteSpace=wrap;html=1;" vertex="1" parent="w8awD3d66yjwIOf7sVY0-47">
          <mxGeometry x="912" y="700" width="120" height="60" as="geometry" />
        </mxCell>
        <mxCell id="w8awD3d66yjwIOf7sVY0-68" style="edgeStyle=orthogonalEdgeStyle;rounded=0;orthogonalLoop=1;jettySize=auto;html=1;exitX=0.5;exitY=1;exitDx=0;exitDy=0;entryX=0.5;entryY=0;entryDx=0;entryDy=0;" edge="1" parent="w8awD3d66yjwIOf7sVY0-47" source="w8awD3d66yjwIOf7sVY0-69" target="w8awD3d66yjwIOf7sVY0-72">
          <mxGeometry relative="1" as="geometry" />
        </mxCell>
        <mxCell id="w8awD3d66yjwIOf7sVY0-69" value="path_token= strtok(path_copy, path_delim)" style="rounded=0;whiteSpace=wrap;html=1;" vertex="1" parent="w8awD3d66yjwIOf7sVY0-47">
          <mxGeometry x="137.5" y="830" width="120" height="60" as="geometry" />
        </mxCell>
        <mxCell id="w8awD3d66yjwIOf7sVY0-70" value="false" style="edgeStyle=orthogonalEdgeStyle;rounded=0;orthogonalLoop=1;jettySize=auto;html=1;exitX=1;exitY=0.5;exitDx=0;exitDy=0;entryX=0;entryY=0.5;entryDx=0;entryDy=0;" edge="1" parent="w8awD3d66yjwIOf7sVY0-47" source="w8awD3d66yjwIOf7sVY0-72" target="w8awD3d66yjwIOf7sVY0-75">
          <mxGeometry relative="1" as="geometry" />
        </mxCell>
        <mxCell id="w8awD3d66yjwIOf7sVY0-71" value="true" style="edgeStyle=orthogonalEdgeStyle;rounded=0;orthogonalLoop=1;jettySize=auto;html=1;exitX=0.5;exitY=1;exitDx=0;exitDy=0;entryX=0.5;entryY=0;entryDx=0;entryDy=0;" edge="1" parent="w8awD3d66yjwIOf7sVY0-47" source="w8awD3d66yjwIOf7sVY0-72" target="w8awD3d66yjwIOf7sVY0-77">
          <mxGeometry relative="1" as="geometry" />
        </mxCell>
        <mxCell id="w8awD3d66yjwIOf7sVY0-72" value="While path_token" style="shape=hexagon;perimeter=hexagonPerimeter2;whiteSpace=wrap;html=1;fixedSize=1;" vertex="1" parent="w8awD3d66yjwIOf7sVY0-47">
          <mxGeometry x="137.5" y="940" width="120" height="80" as="geometry" />
        </mxCell>
        <mxCell id="w8awD3d66yjwIOf7sVY0-73" value="EOF" style="rounded=1;whiteSpace=wrap;html=1;" vertex="1" parent="w8awD3d66yjwIOf7sVY0-47">
          <mxGeometry x="912" y="950" width="120" height="60" as="geometry" />
        </mxCell>
        <mxCell id="w8awD3d66yjwIOf7sVY0-74" style="edgeStyle=orthogonalEdgeStyle;rounded=0;orthogonalLoop=1;jettySize=auto;html=1;exitX=1;exitY=0.5;exitDx=0;exitDy=0;entryX=0;entryY=0.5;entryDx=0;entryDy=0;" edge="1" parent="w8awD3d66yjwIOf7sVY0-47" source="w8awD3d66yjwIOf7sVY0-75" target="w8awD3d66yjwIOf7sVY0-73">
          <mxGeometry relative="1" as="geometry" />
        </mxCell>
        <mxCell id="w8awD3d66yjwIOf7sVY0-75" value="free(path_copy)" style="rounded=0;whiteSpace=wrap;html=1;" vertex="1" parent="w8awD3d66yjwIOf7sVY0-47">
          <mxGeometry x="412" y="950" width="120" height="60" as="geometry" />
        </mxCell>
        <mxCell id="w8awD3d66yjwIOf7sVY0-76" style="edgeStyle=orthogonalEdgeStyle;rounded=0;orthogonalLoop=1;jettySize=auto;html=1;exitX=0.5;exitY=1;exitDx=0;exitDy=0;entryX=0.5;entryY=0;entryDx=0;entryDy=0;" edge="1" parent="w8awD3d66yjwIOf7sVY0-47" source="w8awD3d66yjwIOf7sVY0-77" target="w8awD3d66yjwIOf7sVY0-79">
          <mxGeometry relative="1" as="geometry" />
        </mxCell>
        <mxCell id="w8awD3d66yjwIOf7sVY0-77" value="pp_len = strlen(path_token) + strlen(cmd_vector_item) + 2" style="rounded=0;whiteSpace=wrap;html=1;" vertex="1" parent="w8awD3d66yjwIOf7sVY0-47">
          <mxGeometry x="125.75" y="1110" width="142.5" height="60" as="geometry" />
        </mxCell>
        <mxCell id="w8awD3d66yjwIOf7sVY0-78" style="edgeStyle=orthogonalEdgeStyle;rounded=0;orthogonalLoop=1;jettySize=auto;html=1;exitX=0.5;exitY=1;exitDx=0;exitDy=0;entryX=0.5;entryY=0;entryDx=0;entryDy=0;" edge="1" parent="w8awD3d66yjwIOf7sVY0-47" source="w8awD3d66yjwIOf7sVY0-79" target="w8awD3d66yjwIOf7sVY0-82">
          <mxGeometry relative="1" as="geometry">
            <mxPoint x="197.5" y="1520" as="targetPoint" />
          </mxGeometry>
        </mxCell>
        <mxCell id="w8awD3d66yjwIOf7sVY0-79" value="possible_path = malloc(pp_len)" style="rounded=0;whiteSpace=wrap;html=1;" vertex="1" parent="w8awD3d66yjwIOf7sVY0-47">
          <mxGeometry x="137" y="1220" width="120" height="60" as="geometry" />
        </mxCell>
        <mxCell id="w8awD3d66yjwIOf7sVY0-80" value="true" style="edgeStyle=orthogonalEdgeStyle;rounded=0;orthogonalLoop=1;jettySize=auto;html=1;exitX=1;exitY=0.5;exitDx=0;exitDy=0;entryX=0;entryY=0.5;entryDx=0;entryDy=0;" edge="1" parent="w8awD3d66yjwIOf7sVY0-47" source="w8awD3d66yjwIOf7sVY0-82" target="w8awD3d66yjwIOf7sVY0-84">
          <mxGeometry relative="1" as="geometry">
            <mxPoint x="350" y="1560" as="targetPoint" />
          </mxGeometry>
        </mxCell>
        <mxCell id="w8awD3d66yjwIOf7sVY0-81" value="false" style="edgeStyle=orthogonalEdgeStyle;rounded=0;orthogonalLoop=1;jettySize=auto;html=1;exitX=0.5;exitY=1;exitDx=0;exitDy=0;entryX=0.5;entryY=0;entryDx=0;entryDy=0;" edge="1" parent="w8awD3d66yjwIOf7sVY0-47" source="w8awD3d66yjwIOf7sVY0-82" target="w8awD3d66yjwIOf7sVY0-87">
          <mxGeometry relative="1" as="geometry" />
        </mxCell>
        <mxCell id="w8awD3d66yjwIOf7sVY0-82" value="if !possible_path" style="shape=hexagon;perimeter=hexagonPerimeter2;whiteSpace=wrap;html=1;fixedSize=1;" vertex="1" parent="w8awD3d66yjwIOf7sVY0-47">
          <mxGeometry x="137.5" y="1330" width="120" height="80" as="geometry" />
        </mxCell>
        <mxCell id="w8awD3d66yjwIOf7sVY0-83" style="edgeStyle=orthogonalEdgeStyle;rounded=0;orthogonalLoop=1;jettySize=auto;html=1;exitX=1;exitY=0.5;exitDx=0;exitDy=0;entryX=0;entryY=0.5;entryDx=0;entryDy=0;" edge="1" parent="w8awD3d66yjwIOf7sVY0-47" source="w8awD3d66yjwIOf7sVY0-84" target="w8awD3d66yjwIOf7sVY0-85">
          <mxGeometry relative="1" as="geometry" />
        </mxCell>
        <mxCell id="w8awD3d66yjwIOf7sVY0-84" value="free(path_copy)" style="rounded=0;whiteSpace=wrap;html=1;" vertex="1" parent="w8awD3d66yjwIOf7sVY0-47">
          <mxGeometry x="412" y="1340" width="120" height="60" as="geometry" />
        </mxCell>
        <mxCell id="w8awD3d66yjwIOf7sVY0-85" value="return" style="rounded=1;whiteSpace=wrap;html=1;" vertex="1" parent="w8awD3d66yjwIOf7sVY0-47">
          <mxGeometry x="912" y="1340" width="120" height="60" as="geometry" />
        </mxCell>
        <mxCell id="w8awD3d66yjwIOf7sVY0-86" style="edgeStyle=orthogonalEdgeStyle;rounded=0;orthogonalLoop=1;jettySize=auto;html=1;exitX=0.5;exitY=1;exitDx=0;exitDy=0;entryX=0.5;entryY=0;entryDx=0;entryDy=0;" edge="1" parent="w8awD3d66yjwIOf7sVY0-47" source="w8awD3d66yjwIOf7sVY0-87" target="w8awD3d66yjwIOf7sVY0-90">
          <mxGeometry relative="1" as="geometry" />
        </mxCell>
        <mxCell id="w8awD3d66yjwIOf7sVY0-87" value="sprintf(possible_match, &quot;%s/%s&quot;, path_token, cmd_vector_item)" style="rounded=0;whiteSpace=wrap;html=1;" vertex="1" parent="w8awD3d66yjwIOf7sVY0-47">
          <mxGeometry x="126" y="1480" width="143" height="70" as="geometry" />
        </mxCell>
        <mxCell id="w8awD3d66yjwIOf7sVY0-88" value="true" style="edgeStyle=orthogonalEdgeStyle;rounded=0;orthogonalLoop=1;jettySize=auto;html=1;exitX=1;exitY=0.5;exitDx=0;exitDy=0;entryX=0;entryY=0.5;entryDx=0;entryDy=0;" edge="1" parent="w8awD3d66yjwIOf7sVY0-47" source="w8awD3d66yjwIOf7sVY0-90" target="w8awD3d66yjwIOf7sVY0-101">
          <mxGeometry relative="1" as="geometry">
            <mxPoint x="440" y="1850" as="targetPoint" />
          </mxGeometry>
        </mxCell>
        <mxCell id="w8awD3d66yjwIOf7sVY0-89" value="false" style="edgeStyle=orthogonalEdgeStyle;rounded=0;orthogonalLoop=1;jettySize=auto;html=1;exitX=0.5;exitY=1;exitDx=0;exitDy=0;entryX=0.5;entryY=0;entryDx=0;entryDy=0;" edge="1" parent="w8awD3d66yjwIOf7sVY0-47" source="w8awD3d66yjwIOf7sVY0-90" target="w8awD3d66yjwIOf7sVY0-95">
          <mxGeometry relative="1" as="geometry" />
        </mxCell>
        <mxCell id="w8awD3d66yjwIOf7sVY0-90" value="&lt;br&gt;if access(possible_match, X_OK) == 0" style="shape=hexagon;perimeter=hexagonPerimeter2;whiteSpace=wrap;html=1;fixedSize=1;" vertex="1" parent="w8awD3d66yjwIOf7sVY0-47">
          <mxGeometry x="121.25" y="1620" width="152.5" height="80" as="geometry" />
        </mxCell>
        <mxCell id="w8awD3d66yjwIOf7sVY0-91" style="edgeStyle=orthogonalEdgeStyle;rounded=0;orthogonalLoop=1;jettySize=auto;html=1;exitX=1;exitY=0.5;exitDx=0;exitDy=0;entryX=0;entryY=0.5;entryDx=0;entryDy=0;" edge="1" parent="w8awD3d66yjwIOf7sVY0-47" source="w8awD3d66yjwIOf7sVY0-92" target="w8awD3d66yjwIOf7sVY0-93">
          <mxGeometry relative="1" as="geometry" />
        </mxCell>
        <mxCell id="w8awD3d66yjwIOf7sVY0-92" value="free(path_copy)" style="rounded=0;whiteSpace=wrap;html=1;" vertex="1" parent="w8awD3d66yjwIOf7sVY0-47">
          <mxGeometry x="730" y="1630" width="120" height="60" as="geometry" />
        </mxCell>
        <mxCell id="w8awD3d66yjwIOf7sVY0-93" value="return" style="rounded=1;whiteSpace=wrap;html=1;" vertex="1" parent="w8awD3d66yjwIOf7sVY0-47">
          <mxGeometry x="912" y="1630" width="120" height="60" as="geometry" />
        </mxCell>
        <mxCell id="w8awD3d66yjwIOf7sVY0-94" style="edgeStyle=orthogonalEdgeStyle;rounded=0;orthogonalLoop=1;jettySize=auto;html=1;exitX=0.5;exitY=1;exitDx=0;exitDy=0;entryX=0.5;entryY=0;entryDx=0;entryDy=0;" edge="1" parent="w8awD3d66yjwIOf7sVY0-47" source="w8awD3d66yjwIOf7sVY0-95" target="w8awD3d66yjwIOf7sVY0-97">
          <mxGeometry relative="1" as="geometry" />
        </mxCell>
        <mxCell id="w8awD3d66yjwIOf7sVY0-95" value="free(possible_match)" style="rounded=0;whiteSpace=wrap;html=1;" vertex="1" parent="w8awD3d66yjwIOf7sVY0-47">
          <mxGeometry x="137.5" y="1780" width="120" height="60" as="geometry" />
        </mxCell>
        <mxCell id="w8awD3d66yjwIOf7sVY0-96" style="edgeStyle=orthogonalEdgeStyle;rounded=0;orthogonalLoop=1;jettySize=auto;html=1;exitX=0;exitY=0.5;exitDx=0;exitDy=0;entryX=0;entryY=0.5;entryDx=0;entryDy=0;" edge="1" parent="w8awD3d66yjwIOf7sVY0-47" source="w8awD3d66yjwIOf7sVY0-97" target="w8awD3d66yjwIOf7sVY0-72">
          <mxGeometry relative="1" as="geometry">
            <Array as="points">
              <mxPoint x="40" y="1940" />
              <mxPoint x="40" y="980" />
            </Array>
          </mxGeometry>
        </mxCell>
        <mxCell id="w8awD3d66yjwIOf7sVY0-97" value="path_token = strtok(NULL, path_delim)" style="rounded=0;whiteSpace=wrap;html=1;" vertex="1" parent="w8awD3d66yjwIOf7sVY0-47">
          <mxGeometry x="138" y="1910" width="120" height="60" as="geometry" />
        </mxCell>
        <mxCell id="w8awD3d66yjwIOf7sVY0-98" style="edgeStyle=orthogonalEdgeStyle;rounded=0;orthogonalLoop=1;jettySize=auto;html=1;exitX=1;exitY=0.5;exitDx=0;exitDy=0;entryX=0;entryY=0.5;entryDx=0;entryDy=0;" edge="1" parent="w8awD3d66yjwIOf7sVY0-47" source="w8awD3d66yjwIOf7sVY0-99" target="w8awD3d66yjwIOf7sVY0-92">
          <mxGeometry relative="1" as="geometry" />
        </mxCell>
        <mxCell id="w8awD3d66yjwIOf7sVY0-99" value="free(possible_path)" style="rounded=0;whiteSpace=wrap;html=1;" vertex="1" parent="w8awD3d66yjwIOf7sVY0-47">
          <mxGeometry x="558" y="1630" width="120" height="60" as="geometry" />
        </mxCell>
        <mxCell id="w8awD3d66yjwIOf7sVY0-100" style="edgeStyle=orthogonalEdgeStyle;rounded=0;orthogonalLoop=1;jettySize=auto;html=1;exitX=1;exitY=0.5;exitDx=0;exitDy=0;entryX=0;entryY=0.5;entryDx=0;entryDy=0;" edge="1" parent="w8awD3d66yjwIOf7sVY0-47" source="w8awD3d66yjwIOf7sVY0-101" target="w8awD3d66yjwIOf7sVY0-99">
          <mxGeometry relative="1" as="geometry" />
        </mxCell>
        <mxCell id="w8awD3d66yjwIOf7sVY0-101" value="strcpy(cmd_vector_item, possible_path)" style="rounded=0;whiteSpace=wrap;html=1;" vertex="1" parent="w8awD3d66yjwIOf7sVY0-47">
          <mxGeometry x="352.5" y="1630" width="145" height="60" as="geometry" />
        </mxCell>
        <mxCell id="w8awD3d66yjwIOf7sVY0-102" value="void free_cmd_vector(char **cmd_vector)" style="swimlane;whiteSpace=wrap;html=1;swimlaneFillColor=default;" vertex="1" collapsed="1" parent="1">
          <mxGeometry x="1700" y="200" width="280" height="30" as="geometry">
            <mxRectangle x="1700" y="200" width="830" height="600" as="alternateBounds" />
          </mxGeometry>
        </mxCell>
        <mxCell id="w8awD3d66yjwIOf7sVY0-103" style="edgeStyle=orthogonalEdgeStyle;rounded=0;orthogonalLoop=1;jettySize=auto;html=1;exitX=0.5;exitY=1;exitDx=0;exitDy=0;entryX=0.5;entryY=0;entryDx=0;entryDy=0;" edge="1" parent="w8awD3d66yjwIOf7sVY0-102" source="w8awD3d66yjwIOf7sVY0-104" target="w8awD3d66yjwIOf7sVY0-106">
          <mxGeometry relative="1" as="geometry" />
        </mxCell>
        <mxCell id="w8awD3d66yjwIOf7sVY0-104" value="start" style="rounded=1;whiteSpace=wrap;html=1;" vertex="1" parent="w8awD3d66yjwIOf7sVY0-102">
          <mxGeometry x="365" y="40" width="120" height="60" as="geometry" />
        </mxCell>
        <mxCell id="w8awD3d66yjwIOf7sVY0-105" style="edgeStyle=orthogonalEdgeStyle;rounded=0;orthogonalLoop=1;jettySize=auto;html=1;exitX=0.5;exitY=1;exitDx=0;exitDy=0;entryX=0.5;entryY=0;entryDx=0;entryDy=0;" edge="1" parent="w8awD3d66yjwIOf7sVY0-102" source="w8awD3d66yjwIOf7sVY0-106" target="w8awD3d66yjwIOf7sVY0-109">
          <mxGeometry relative="1" as="geometry" />
        </mxCell>
        <mxCell id="w8awD3d66yjwIOf7sVY0-106" value="int i" style="rounded=0;whiteSpace=wrap;html=1;" vertex="1" parent="w8awD3d66yjwIOf7sVY0-102">
          <mxGeometry x="365" y="150" width="120" height="60" as="geometry" />
        </mxCell>
        <mxCell id="w8awD3d66yjwIOf7sVY0-107" value="true" style="edgeStyle=orthogonalEdgeStyle;rounded=0;orthogonalLoop=1;jettySize=auto;html=1;exitX=1;exitY=0.5;exitDx=0;exitDy=0;entryX=0;entryY=0.5;entryDx=0;entryDy=0;" edge="1" parent="w8awD3d66yjwIOf7sVY0-102" source="w8awD3d66yjwIOf7sVY0-109" target="w8awD3d66yjwIOf7sVY0-111">
          <mxGeometry relative="1" as="geometry" />
        </mxCell>
        <mxCell id="w8awD3d66yjwIOf7sVY0-108" style="edgeStyle=orthogonalEdgeStyle;rounded=0;orthogonalLoop=1;jettySize=auto;html=1;exitX=0.5;exitY=1;exitDx=0;exitDy=0;entryX=0.5;entryY=0;entryDx=0;entryDy=0;" edge="1" parent="w8awD3d66yjwIOf7sVY0-102" source="w8awD3d66yjwIOf7sVY0-109" target="w8awD3d66yjwIOf7sVY0-113">
          <mxGeometry relative="1" as="geometry" />
        </mxCell>
        <mxCell id="w8awD3d66yjwIOf7sVY0-109" value="for (i = 0; cmd_vector[i] != NULL; i++)" style="shape=hexagon;perimeter=hexagonPerimeter2;whiteSpace=wrap;html=1;fixedSize=1;" vertex="1" parent="w8awD3d66yjwIOf7sVY0-102">
          <mxGeometry x="365" y="270" width="120" height="80" as="geometry" />
        </mxCell>
        <mxCell id="w8awD3d66yjwIOf7sVY0-110" style="edgeStyle=orthogonalEdgeStyle;rounded=0;orthogonalLoop=1;jettySize=auto;html=1;exitX=0.5;exitY=0;exitDx=0;exitDy=0;entryX=0.5;entryY=0;entryDx=0;entryDy=0;" edge="1" parent="w8awD3d66yjwIOf7sVY0-102" source="w8awD3d66yjwIOf7sVY0-111" target="w8awD3d66yjwIOf7sVY0-109">
          <mxGeometry relative="1" as="geometry">
            <Array as="points">
              <mxPoint x="650" y="240" />
              <mxPoint x="425" y="240" />
            </Array>
          </mxGeometry>
        </mxCell>
        <mxCell id="w8awD3d66yjwIOf7sVY0-111" value="free(cmd_vector[i])" style="rounded=0;whiteSpace=wrap;html=1;" vertex="1" parent="w8awD3d66yjwIOf7sVY0-102">
          <mxGeometry x="590" y="280" width="120" height="60" as="geometry" />
        </mxCell>
        <mxCell id="w8awD3d66yjwIOf7sVY0-112" style="edgeStyle=orthogonalEdgeStyle;rounded=0;orthogonalLoop=1;jettySize=auto;html=1;exitX=0.5;exitY=1;exitDx=0;exitDy=0;entryX=0.5;entryY=0;entryDx=0;entryDy=0;" edge="1" parent="w8awD3d66yjwIOf7sVY0-102" source="w8awD3d66yjwIOf7sVY0-113" target="w8awD3d66yjwIOf7sVY0-114">
          <mxGeometry relative="1" as="geometry" />
        </mxCell>
        <mxCell id="w8awD3d66yjwIOf7sVY0-113" value="free(cmd_vector)" style="rounded=0;whiteSpace=wrap;html=1;" vertex="1" parent="w8awD3d66yjwIOf7sVY0-102">
          <mxGeometry x="365" y="400" width="120" height="60" as="geometry" />
        </mxCell>
        <mxCell id="w8awD3d66yjwIOf7sVY0-114" value="EOF" style="rounded=1;whiteSpace=wrap;html=1;" vertex="1" parent="w8awD3d66yjwIOf7sVY0-102">
          <mxGeometry x="365" y="510" width="120" height="60" as="geometry" />
        </mxCell>
        <mxCell id="w8awD3d66yjwIOf7sVY0-115" value="void exit_handler(char **cmd_vector, char *line)" style="swimlane;whiteSpace=wrap;html=1;swimlaneFillColor=default;" vertex="1" collapsed="1" parent="1">
          <mxGeometry x="1700" y="160" width="320" height="30" as="geometry">
            <mxRectangle x="1700" y="160" width="850" height="500" as="alternateBounds" />
          </mxGeometry>
        </mxCell>
        <mxCell id="w8awD3d66yjwIOf7sVY0-116" style="edgeStyle=orthogonalEdgeStyle;rounded=0;orthogonalLoop=1;jettySize=auto;html=1;exitX=0.5;exitY=1;exitDx=0;exitDy=0;entryX=0.5;entryY=0;entryDx=0;entryDy=0;" edge="1" parent="w8awD3d66yjwIOf7sVY0-115" source="w8awD3d66yjwIOf7sVY0-117" target="w8awD3d66yjwIOf7sVY0-119">
          <mxGeometry relative="1" as="geometry" />
        </mxCell>
        <mxCell id="w8awD3d66yjwIOf7sVY0-117" value="start" style="rounded=1;whiteSpace=wrap;html=1;" vertex="1" parent="w8awD3d66yjwIOf7sVY0-115">
          <mxGeometry x="365" y="40" width="120" height="60" as="geometry" />
        </mxCell>
        <mxCell id="w8awD3d66yjwIOf7sVY0-118" style="edgeStyle=orthogonalEdgeStyle;rounded=0;orthogonalLoop=1;jettySize=auto;html=1;exitX=0.5;exitY=1;exitDx=0;exitDy=0;entryX=0.5;entryY=0;entryDx=0;entryDy=0;" edge="1" parent="w8awD3d66yjwIOf7sVY0-115" source="w8awD3d66yjwIOf7sVY0-119" target="w8awD3d66yjwIOf7sVY0-121">
          <mxGeometry relative="1" as="geometry" />
        </mxCell>
        <mxCell id="w8awD3d66yjwIOf7sVY0-119" value="free(line)" style="rounded=0;whiteSpace=wrap;html=1;" vertex="1" parent="w8awD3d66yjwIOf7sVY0-115">
          <mxGeometry x="365" y="170" width="120" height="60" as="geometry" />
        </mxCell>
        <mxCell id="w8awD3d66yjwIOf7sVY0-120" style="edgeStyle=orthogonalEdgeStyle;rounded=0;orthogonalLoop=1;jettySize=auto;html=1;exitX=0.5;exitY=1;exitDx=0;exitDy=0;entryX=0.5;entryY=0;entryDx=0;entryDy=0;" edge="1" parent="w8awD3d66yjwIOf7sVY0-115" source="w8awD3d66yjwIOf7sVY0-121" target="w8awD3d66yjwIOf7sVY0-122">
          <mxGeometry relative="1" as="geometry" />
        </mxCell>
        <mxCell id="w8awD3d66yjwIOf7sVY0-121" value="free_cmd_vector&lt;br&gt;(cmd_vector)" style="shape=process;whiteSpace=wrap;html=1;backgroundOutline=1;" vertex="1" parent="w8awD3d66yjwIOf7sVY0-115">
          <mxGeometry x="365" y="290" width="120" height="60" as="geometry" />
        </mxCell>
        <mxCell id="w8awD3d66yjwIOf7sVY0-122" value="exit(EXIT_SUCCESS)" style="rounded=1;whiteSpace=wrap;html=1;" vertex="1" parent="w8awD3d66yjwIOf7sVY0-115">
          <mxGeometry x="365" y="410" width="120" height="60" as="geometry" />
        </mxCell>
        <mxCell id="w8awD3d66yjwIOf7sVY0-123" value="void _printenv(void)" style="swimlane;whiteSpace=wrap;html=1;swimlaneFillColor=default;" vertex="1" collapsed="1" parent="1">
          <mxGeometry x="1700" y="120" width="150" height="30" as="geometry">
            <mxRectangle x="1700" y="120" width="840" height="650" as="alternateBounds" />
          </mxGeometry>
        </mxCell>
        <mxCell id="w8awD3d66yjwIOf7sVY0-124" style="edgeStyle=orthogonalEdgeStyle;rounded=0;orthogonalLoop=1;jettySize=auto;html=1;exitX=0.5;exitY=1;exitDx=0;exitDy=0;entryX=0.5;entryY=0;entryDx=0;entryDy=0;" edge="1" parent="w8awD3d66yjwIOf7sVY0-123" source="w8awD3d66yjwIOf7sVY0-125" target="w8awD3d66yjwIOf7sVY0-127">
          <mxGeometry relative="1" as="geometry" />
        </mxCell>
        <mxCell id="w8awD3d66yjwIOf7sVY0-125" value="start" style="rounded=1;whiteSpace=wrap;html=1;" vertex="1" parent="w8awD3d66yjwIOf7sVY0-123">
          <mxGeometry x="365" y="50" width="120" height="60" as="geometry" />
        </mxCell>
        <mxCell id="w8awD3d66yjwIOf7sVY0-126" style="edgeStyle=orthogonalEdgeStyle;rounded=0;orthogonalLoop=1;jettySize=auto;html=1;exitX=0.5;exitY=1;exitDx=0;exitDy=0;entryX=0.5;entryY=0;entryDx=0;entryDy=0;" edge="1" parent="w8awD3d66yjwIOf7sVY0-123" source="w8awD3d66yjwIOf7sVY0-127" target="w8awD3d66yjwIOf7sVY0-130">
          <mxGeometry relative="1" as="geometry" />
        </mxCell>
        <mxCell id="w8awD3d66yjwIOf7sVY0-127" value="char **env = environ" style="rounded=0;whiteSpace=wrap;html=1;" vertex="1" parent="w8awD3d66yjwIOf7sVY0-123">
          <mxGeometry x="365" y="170" width="120" height="60" as="geometry" />
        </mxCell>
        <mxCell id="w8awD3d66yjwIOf7sVY0-128" value="true" style="edgeStyle=orthogonalEdgeStyle;rounded=0;orthogonalLoop=1;jettySize=auto;html=1;exitX=0.5;exitY=1;exitDx=0;exitDy=0;entryX=0.5;entryY=0;entryDx=0;entryDy=0;" edge="1" parent="w8awD3d66yjwIOf7sVY0-123" source="w8awD3d66yjwIOf7sVY0-130" target="w8awD3d66yjwIOf7sVY0-132">
          <mxGeometry relative="1" as="geometry" />
        </mxCell>
        <mxCell id="w8awD3d66yjwIOf7sVY0-129" value="false" style="edgeStyle=orthogonalEdgeStyle;rounded=0;orthogonalLoop=1;jettySize=auto;html=1;exitX=1;exitY=0.5;exitDx=0;exitDy=0;entryX=0;entryY=0.5;entryDx=0;entryDy=0;" edge="1" parent="w8awD3d66yjwIOf7sVY0-123" source="w8awD3d66yjwIOf7sVY0-130" target="w8awD3d66yjwIOf7sVY0-135">
          <mxGeometry relative="1" as="geometry" />
        </mxCell>
        <mxCell id="w8awD3d66yjwIOf7sVY0-130" value="while (*env)" style="shape=hexagon;perimeter=hexagonPerimeter2;whiteSpace=wrap;html=1;fixedSize=1;" vertex="1" parent="w8awD3d66yjwIOf7sVY0-123">
          <mxGeometry x="365" y="285" width="120" height="80" as="geometry" />
        </mxCell>
        <mxCell id="w8awD3d66yjwIOf7sVY0-131" style="edgeStyle=orthogonalEdgeStyle;rounded=0;orthogonalLoop=1;jettySize=auto;html=1;exitX=0.5;exitY=1;exitDx=0;exitDy=0;entryX=0.5;entryY=0;entryDx=0;entryDy=0;" edge="1" parent="w8awD3d66yjwIOf7sVY0-123" source="w8awD3d66yjwIOf7sVY0-132" target="w8awD3d66yjwIOf7sVY0-134">
          <mxGeometry relative="1" as="geometry" />
        </mxCell>
        <mxCell id="w8awD3d66yjwIOf7sVY0-132" value="printf(&quot;%s&quot;, *env)" style="rounded=0;whiteSpace=wrap;html=1;" vertex="1" parent="w8awD3d66yjwIOf7sVY0-123">
          <mxGeometry x="365" y="430" width="120" height="60" as="geometry" />
        </mxCell>
        <mxCell id="w8awD3d66yjwIOf7sVY0-133" style="edgeStyle=orthogonalEdgeStyle;rounded=0;orthogonalLoop=1;jettySize=auto;html=1;exitX=0;exitY=0.5;exitDx=0;exitDy=0;entryX=0;entryY=0.5;entryDx=0;entryDy=0;" edge="1" parent="w8awD3d66yjwIOf7sVY0-123" source="w8awD3d66yjwIOf7sVY0-134" target="w8awD3d66yjwIOf7sVY0-130">
          <mxGeometry relative="1" as="geometry">
            <Array as="points">
              <mxPoint x="300" y="570" />
              <mxPoint x="300" y="325" />
            </Array>
          </mxGeometry>
        </mxCell>
        <mxCell id="w8awD3d66yjwIOf7sVY0-134" value="env ++" style="rounded=0;whiteSpace=wrap;html=1;" vertex="1" parent="w8awD3d66yjwIOf7sVY0-123">
          <mxGeometry x="365" y="540" width="120" height="60" as="geometry" />
        </mxCell>
        <mxCell id="w8awD3d66yjwIOf7sVY0-135" value="EOF" style="rounded=1;whiteSpace=wrap;html=1;" vertex="1" parent="w8awD3d66yjwIOf7sVY0-123">
          <mxGeometry x="570" y="295" width="120" height="60" as="geometry" />
        </mxCell>
        <mxCell id="w8awD3d66yjwIOf7sVY0-136" value="void is_builtin(char **cmd_vector, char *line)" style="swimlane;whiteSpace=wrap;html=1;swimlaneFillColor=default;" vertex="1" collapsed="1" parent="1">
          <mxGeometry x="1700" y="80" width="270" height="30" as="geometry">
            <mxRectangle x="1700" y="80" width="840" height="550" as="alternateBounds" />
          </mxGeometry>
        </mxCell>
        <mxCell id="w8awD3d66yjwIOf7sVY0-137" value="start" style="rounded=1;whiteSpace=wrap;html=1;" vertex="1" parent="w8awD3d66yjwIOf7sVY0-136">
          <mxGeometry x="80" y="40" width="120" height="60" as="geometry" />
        </mxCell>
        <mxCell id="w8awD3d66yjwIOf7sVY0-138" value="true" style="edgeStyle=orthogonalEdgeStyle;rounded=0;orthogonalLoop=1;jettySize=auto;html=1;exitX=1;exitY=0.5;exitDx=0;exitDy=0;entryX=0;entryY=0.5;entryDx=0;entryDy=0;" edge="1" parent="w8awD3d66yjwIOf7sVY0-136" source="w8awD3d66yjwIOf7sVY0-139" target="w8awD3d66yjwIOf7sVY0-142">
          <mxGeometry relative="1" as="geometry" />
        </mxCell>
        <mxCell id="w8awD3d66yjwIOf7sVY0-139" value="cmd_vector[0] &lt;br&gt;== &quot;env&quot; ?" style="shape=hexagon;perimeter=hexagonPerimeter2;whiteSpace=wrap;html=1;fixedSize=1;" vertex="1" parent="w8awD3d66yjwIOf7sVY0-136">
          <mxGeometry x="80" y="160" width="120" height="80" as="geometry" />
        </mxCell>
        <mxCell id="w8awD3d66yjwIOf7sVY0-140" style="edgeStyle=orthogonalEdgeStyle;rounded=0;orthogonalLoop=1;jettySize=auto;html=1;exitX=0.5;exitY=1;exitDx=0;exitDy=0;entryX=0.5;entryY=0;entryDx=0;entryDy=0;" edge="1" parent="w8awD3d66yjwIOf7sVY0-136" source="w8awD3d66yjwIOf7sVY0-137" target="w8awD3d66yjwIOf7sVY0-139">
          <mxGeometry relative="1" as="geometry">
            <mxPoint x="425" y="170" as="targetPoint" />
          </mxGeometry>
        </mxCell>
        <mxCell id="w8awD3d66yjwIOf7sVY0-141" style="edgeStyle=orthogonalEdgeStyle;rounded=0;orthogonalLoop=1;jettySize=auto;html=1;exitX=1;exitY=0.5;exitDx=0;exitDy=0;entryX=0;entryY=0.5;entryDx=0;entryDy=0;" edge="1" parent="w8awD3d66yjwIOf7sVY0-136" source="w8awD3d66yjwIOf7sVY0-142" target="w8awD3d66yjwIOf7sVY0-144">
          <mxGeometry relative="1" as="geometry" />
        </mxCell>
        <mxCell id="w8awD3d66yjwIOf7sVY0-142" value="_printenv()" style="shape=process;whiteSpace=wrap;html=1;backgroundOutline=1;" vertex="1" parent="w8awD3d66yjwIOf7sVY0-136">
          <mxGeometry x="290" y="170" width="120" height="60" as="geometry" />
        </mxCell>
        <mxCell id="w8awD3d66yjwIOf7sVY0-143" style="edgeStyle=orthogonalEdgeStyle;rounded=0;orthogonalLoop=1;jettySize=auto;html=1;exitX=1;exitY=0.5;exitDx=0;exitDy=0;entryX=0;entryY=0.5;entryDx=0;entryDy=0;" edge="1" parent="w8awD3d66yjwIOf7sVY0-136" source="w8awD3d66yjwIOf7sVY0-144" target="w8awD3d66yjwIOf7sVY0-145">
          <mxGeometry relative="1" as="geometry" />
        </mxCell>
        <mxCell id="w8awD3d66yjwIOf7sVY0-144" value="*builtin_flag = 1" style="rounded=0;whiteSpace=wrap;html=1;" vertex="1" parent="w8awD3d66yjwIOf7sVY0-136">
          <mxGeometry x="480" y="170" width="120" height="60" as="geometry" />
        </mxCell>
        <mxCell id="w8awD3d66yjwIOf7sVY0-145" value="return" style="rounded=1;whiteSpace=wrap;html=1;" vertex="1" parent="w8awD3d66yjwIOf7sVY0-136">
          <mxGeometry x="680" y="170" width="120" height="60" as="geometry" />
        </mxCell>
        <mxCell id="w8awD3d66yjwIOf7sVY0-146" value="false" style="edgeStyle=orthogonalEdgeStyle;rounded=0;orthogonalLoop=1;jettySize=auto;html=1;exitX=0.5;exitY=1;exitDx=0;exitDy=0;entryX=0.5;entryY=0;entryDx=0;entryDy=0;" edge="1" parent="w8awD3d66yjwIOf7sVY0-136" source="w8awD3d66yjwIOf7sVY0-139" target="w8awD3d66yjwIOf7sVY0-149">
          <mxGeometry relative="1" as="geometry">
            <mxPoint x="50" y="280" as="targetPoint" />
          </mxGeometry>
        </mxCell>
        <mxCell id="w8awD3d66yjwIOf7sVY0-147" value="true" style="edgeStyle=orthogonalEdgeStyle;rounded=0;orthogonalLoop=1;jettySize=auto;html=1;exitX=1;exitY=0.5;exitDx=0;exitDy=0;entryX=0;entryY=0.5;entryDx=0;entryDy=0;" edge="1" parent="w8awD3d66yjwIOf7sVY0-136" source="w8awD3d66yjwIOf7sVY0-149" target="w8awD3d66yjwIOf7sVY0-150">
          <mxGeometry relative="1" as="geometry" />
        </mxCell>
        <mxCell id="w8awD3d66yjwIOf7sVY0-148" style="edgeStyle=orthogonalEdgeStyle;rounded=0;orthogonalLoop=1;jettySize=auto;html=1;exitX=0.5;exitY=1;exitDx=0;exitDy=0;entryX=0.5;entryY=0;entryDx=0;entryDy=0;" edge="1" parent="w8awD3d66yjwIOf7sVY0-136" source="w8awD3d66yjwIOf7sVY0-149" target="w8awD3d66yjwIOf7sVY0-151">
          <mxGeometry relative="1" as="geometry" />
        </mxCell>
        <mxCell id="w8awD3d66yjwIOf7sVY0-149" value="cmd_vector[0] &lt;br&gt;== &quot;exit&quot; ?" style="shape=hexagon;perimeter=hexagonPerimeter2;whiteSpace=wrap;html=1;fixedSize=1;" vertex="1" parent="w8awD3d66yjwIOf7sVY0-136">
          <mxGeometry x="80" y="330" width="120" height="80" as="geometry" />
        </mxCell>
        <mxCell id="w8awD3d66yjwIOf7sVY0-150" value="exit_handler" style="shape=process;whiteSpace=wrap;html=1;backgroundOutline=1;" vertex="1" parent="w8awD3d66yjwIOf7sVY0-136">
          <mxGeometry x="290" y="340" width="120" height="60" as="geometry" />
        </mxCell>
        <mxCell id="w8awD3d66yjwIOf7sVY0-151" value="EOF" style="rounded=1;whiteSpace=wrap;html=1;" vertex="1" parent="w8awD3d66yjwIOf7sVY0-136">
          <mxGeometry x="80" y="470" width="120" height="60" as="geometry" />
        </mxCell>
        <mxCell id="w8awD3d66yjwIOf7sVY0-152" value="char **_tokenize(char* line, char *argv)" style="swimlane;whiteSpace=wrap;html=1;swimlaneFillColor=default;" vertex="1" collapsed="1" parent="1">
          <mxGeometry x="1700" y="40" width="260" height="30" as="geometry">
            <mxRectangle x="1700" y="40" width="1230" height="1560" as="alternateBounds" />
          </mxGeometry>
        </mxCell>
        <mxCell id="w8awD3d66yjwIOf7sVY0-153" value="start" style="rounded=1;whiteSpace=wrap;html=1;" vertex="1" parent="w8awD3d66yjwIOf7sVY0-152">
          <mxGeometry x="18" y="30" width="120" height="60" as="geometry" />
        </mxCell>
        <mxCell id="w8awD3d66yjwIOf7sVY0-154" style="edgeStyle=orthogonalEdgeStyle;rounded=0;orthogonalLoop=1;jettySize=auto;html=1;exitX=0.5;exitY=1;exitDx=0;exitDy=0;entryX=0.5;entryY=0;entryDx=0;entryDy=0;" edge="1" parent="w8awD3d66yjwIOf7sVY0-152" source="w8awD3d66yjwIOf7sVY0-155" target="w8awD3d66yjwIOf7sVY0-158">
          <mxGeometry relative="1" as="geometry" />
        </mxCell>
        <mxCell id="w8awD3d66yjwIOf7sVY0-155" value="int i;&lt;br&gt;char *token;&lt;br&gt;char *delim = &quot; &quot;;&lt;br&gt;char **cmd_vector" style="whiteSpace=wrap;html=1;aspect=fixed;" vertex="1" parent="w8awD3d66yjwIOf7sVY0-152">
          <mxGeometry x="18" y="130" width="120" height="120" as="geometry" />
        </mxCell>
        <mxCell id="w8awD3d66yjwIOf7sVY0-156" style="edgeStyle=orthogonalEdgeStyle;rounded=0;orthogonalLoop=1;jettySize=auto;html=1;exitX=0.5;exitY=1;exitDx=0;exitDy=0;" edge="1" parent="w8awD3d66yjwIOf7sVY0-152" source="w8awD3d66yjwIOf7sVY0-153" target="w8awD3d66yjwIOf7sVY0-155">
          <mxGeometry relative="1" as="geometry">
            <mxPoint x="425.33333333333303" y="160" as="targetPoint" />
          </mxGeometry>
        </mxCell>
        <mxCell id="w8awD3d66yjwIOf7sVY0-157" value="true" style="edgeStyle=orthogonalEdgeStyle;rounded=0;orthogonalLoop=1;jettySize=auto;html=1;exitX=1;exitY=0.5;exitDx=0;exitDy=0;entryX=0;entryY=0.5;entryDx=0;entryDy=0;" edge="1" parent="w8awD3d66yjwIOf7sVY0-152" source="w8awD3d66yjwIOf7sVY0-158" target="w8awD3d66yjwIOf7sVY0-159">
          <mxGeometry relative="1" as="geometry">
            <mxPoint x="580" y="360" as="targetPoint" />
          </mxGeometry>
        </mxCell>
        <mxCell id="w8awD3d66yjwIOf7sVY0-158" value="if line == NULL" style="shape=hexagon;perimeter=hexagonPerimeter2;whiteSpace=wrap;html=1;fixedSize=1;" vertex="1" parent="w8awD3d66yjwIOf7sVY0-152">
          <mxGeometry x="18" y="300" width="120" height="80" as="geometry" />
        </mxCell>
        <mxCell id="w8awD3d66yjwIOf7sVY0-159" value="Return NULL" style="rounded=1;whiteSpace=wrap;html=1;" vertex="1" parent="w8awD3d66yjwIOf7sVY0-152">
          <mxGeometry x="1070" y="310" width="120" height="60" as="geometry" />
        </mxCell>
        <mxCell id="w8awD3d66yjwIOf7sVY0-160" style="edgeStyle=orthogonalEdgeStyle;rounded=0;orthogonalLoop=1;jettySize=auto;html=1;exitX=0.5;exitY=1;exitDx=0;exitDy=0;entryX=0.5;entryY=0;entryDx=0;entryDy=0;" edge="1" parent="w8awD3d66yjwIOf7sVY0-152" source="w8awD3d66yjwIOf7sVY0-161" target="w8awD3d66yjwIOf7sVY0-167">
          <mxGeometry relative="1" as="geometry" />
        </mxCell>
        <mxCell id="w8awD3d66yjwIOf7sVY0-161" value="token = strtok(line, delim)" style="rounded=0;whiteSpace=wrap;html=1;" vertex="1" parent="w8awD3d66yjwIOf7sVY0-152">
          <mxGeometry x="18" y="710" width="120" height="60" as="geometry" />
        </mxCell>
        <mxCell id="w8awD3d66yjwIOf7sVY0-162" value="false" style="edgeStyle=orthogonalEdgeStyle;rounded=0;orthogonalLoop=1;jettySize=auto;html=1;exitX=0.5;exitY=1;exitDx=0;exitDy=0;entryX=0.5;entryY=0;entryDx=0;entryDy=0;" edge="1" parent="w8awD3d66yjwIOf7sVY0-152" source="w8awD3d66yjwIOf7sVY0-158" target="w8awD3d66yjwIOf7sVY0-177">
          <mxGeometry relative="1" as="geometry" />
        </mxCell>
        <mxCell id="w8awD3d66yjwIOf7sVY0-163" value="true" style="edgeStyle=orthogonalEdgeStyle;rounded=0;orthogonalLoop=1;jettySize=auto;html=1;exitX=1;exitY=0.5;exitDx=0;exitDy=0;entryX=0;entryY=0.5;entryDx=0;entryDy=0;" edge="1" parent="w8awD3d66yjwIOf7sVY0-152" source="w8awD3d66yjwIOf7sVY0-165" target="w8awD3d66yjwIOf7sVY0-185">
          <mxGeometry relative="1" as="geometry">
            <mxPoint x="193.0033333333331" y="965" as="targetPoint" />
          </mxGeometry>
        </mxCell>
        <mxCell id="w8awD3d66yjwIOf7sVY0-164" value="false" style="edgeStyle=orthogonalEdgeStyle;rounded=0;orthogonalLoop=1;jettySize=auto;html=1;exitX=0.5;exitY=1;exitDx=0;exitDy=0;entryX=0.5;entryY=0;entryDx=0;entryDy=0;" edge="1" parent="w8awD3d66yjwIOf7sVY0-152" source="w8awD3d66yjwIOf7sVY0-165" target="w8awD3d66yjwIOf7sVY0-171">
          <mxGeometry relative="1" as="geometry" />
        </mxCell>
        <mxCell id="w8awD3d66yjwIOf7sVY0-165" value="while (token)" style="shape=hexagon;perimeter=hexagonPerimeter2;whiteSpace=wrap;html=1;fixedSize=1;" vertex="1" parent="w8awD3d66yjwIOf7sVY0-152">
          <mxGeometry x="18" y="925" width="120" height="80" as="geometry" />
        </mxCell>
        <mxCell id="w8awD3d66yjwIOf7sVY0-166" style="edgeStyle=orthogonalEdgeStyle;rounded=0;orthogonalLoop=1;jettySize=auto;html=1;exitX=0.5;exitY=1;exitDx=0;exitDy=0;entryX=0.5;entryY=0;entryDx=0;entryDy=0;" edge="1" parent="w8awD3d66yjwIOf7sVY0-152" source="w8awD3d66yjwIOf7sVY0-167" target="w8awD3d66yjwIOf7sVY0-165">
          <mxGeometry relative="1" as="geometry" />
        </mxCell>
        <mxCell id="w8awD3d66yjwIOf7sVY0-167" value="i = 0;" style="rounded=0;whiteSpace=wrap;html=1;" vertex="1" parent="w8awD3d66yjwIOf7sVY0-152">
          <mxGeometry x="18" y="820" width="120" height="60" as="geometry" />
        </mxCell>
        <mxCell id="w8awD3d66yjwIOf7sVY0-168" style="edgeStyle=orthogonalEdgeStyle;rounded=0;orthogonalLoop=1;jettySize=auto;html=1;exitX=0.5;exitY=0;exitDx=0;exitDy=0;entryX=0.5;entryY=0;entryDx=0;entryDy=0;" edge="1" parent="w8awD3d66yjwIOf7sVY0-152" source="w8awD3d66yjwIOf7sVY0-169" target="w8awD3d66yjwIOf7sVY0-165">
          <mxGeometry relative="1" as="geometry">
            <Array as="points">
              <mxPoint x="970" y="900" />
              <mxPoint x="78" y="900" />
            </Array>
          </mxGeometry>
        </mxCell>
        <mxCell id="w8awD3d66yjwIOf7sVY0-169" value="token = strtok(NULL, delim)" style="rounded=0;whiteSpace=wrap;html=1;" vertex="1" parent="w8awD3d66yjwIOf7sVY0-152">
          <mxGeometry x="910.0033333333331" y="935" width="120" height="60" as="geometry" />
        </mxCell>
        <mxCell id="w8awD3d66yjwIOf7sVY0-170" style="edgeStyle=orthogonalEdgeStyle;rounded=0;orthogonalLoop=1;jettySize=auto;html=1;exitX=0.5;exitY=1;exitDx=0;exitDy=0;entryX=0.5;entryY=0;entryDx=0;entryDy=0;" edge="1" parent="w8awD3d66yjwIOf7sVY0-152" source="w8awD3d66yjwIOf7sVY0-171" target="w8awD3d66yjwIOf7sVY0-174">
          <mxGeometry relative="1" as="geometry" />
        </mxCell>
        <mxCell id="w8awD3d66yjwIOf7sVY0-171" value="cmd_vector[i] = NULL;" style="rounded=0;whiteSpace=wrap;html=1;" vertex="1" parent="w8awD3d66yjwIOf7sVY0-152">
          <mxGeometry x="18" y="1080" width="120" height="60" as="geometry" />
        </mxCell>
        <mxCell id="w8awD3d66yjwIOf7sVY0-172" value="true" style="edgeStyle=orthogonalEdgeStyle;rounded=0;orthogonalLoop=1;jettySize=auto;html=1;exitX=1;exitY=0.5;exitDx=0;exitDy=0;entryX=0;entryY=0.5;entryDx=0;entryDy=0;" edge="1" parent="w8awD3d66yjwIOf7sVY0-152" source="w8awD3d66yjwIOf7sVY0-174" target="w8awD3d66yjwIOf7sVY0-205">
          <mxGeometry relative="1" as="geometry">
            <mxPoint x="233" y="1370" as="targetPoint" />
          </mxGeometry>
        </mxCell>
        <mxCell id="w8awD3d66yjwIOf7sVY0-173" style="edgeStyle=orthogonalEdgeStyle;rounded=0;orthogonalLoop=1;jettySize=auto;html=1;exitX=0.5;exitY=1;exitDx=0;exitDy=0;entryX=0.5;entryY=0;entryDx=0;entryDy=0;" edge="1" parent="w8awD3d66yjwIOf7sVY0-152" source="w8awD3d66yjwIOf7sVY0-174" target="w8awD3d66yjwIOf7sVY0-206">
          <mxGeometry relative="1" as="geometry" />
        </mxCell>
        <mxCell id="w8awD3d66yjwIOf7sVY0-174" value="if cmd_vector[0] == NULL" style="shape=hexagon;perimeter=hexagonPerimeter2;whiteSpace=wrap;html=1;fixedSize=1;" vertex="1" parent="w8awD3d66yjwIOf7sVY0-152">
          <mxGeometry x="18" y="1330" width="120" height="80" as="geometry" />
        </mxCell>
        <mxCell id="w8awD3d66yjwIOf7sVY0-175" value="False" style="edgeStyle=orthogonalEdgeStyle;rounded=0;orthogonalLoop=1;jettySize=auto;html=1;exitX=0.5;exitY=1;exitDx=0;exitDy=0;entryX=0.5;entryY=0;entryDx=0;entryDy=0;" edge="1" parent="w8awD3d66yjwIOf7sVY0-152">
          <mxGeometry relative="1" as="geometry">
            <mxPoint x="425" y="1490" as="targetPoint" />
          </mxGeometry>
        </mxCell>
        <mxCell id="w8awD3d66yjwIOf7sVY0-176" style="edgeStyle=orthogonalEdgeStyle;rounded=0;orthogonalLoop=1;jettySize=auto;html=1;exitX=0.5;exitY=1;exitDx=0;exitDy=0;entryX=0.5;entryY=0;entryDx=0;entryDy=0;" edge="1" parent="w8awD3d66yjwIOf7sVY0-152" source="w8awD3d66yjwIOf7sVY0-177" target="w8awD3d66yjwIOf7sVY0-180">
          <mxGeometry relative="1" as="geometry" />
        </mxCell>
        <mxCell id="w8awD3d66yjwIOf7sVY0-177" value="malloc cmd_vector (char ** =&amp;gt; MAX_ARGS_INPUT * sizeof(char *))" style="rounded=0;whiteSpace=wrap;html=1;" vertex="1" parent="w8awD3d66yjwIOf7sVY0-152">
          <mxGeometry x="18" y="440" width="120" height="60" as="geometry" />
        </mxCell>
        <mxCell id="w8awD3d66yjwIOf7sVY0-178" value="true" style="edgeStyle=orthogonalEdgeStyle;rounded=0;orthogonalLoop=1;jettySize=auto;html=1;exitX=1;exitY=0.5;exitDx=0;exitDy=0;entryX=0;entryY=0.5;entryDx=0;entryDy=0;" edge="1" parent="w8awD3d66yjwIOf7sVY0-152" source="w8awD3d66yjwIOf7sVY0-180" target="w8awD3d66yjwIOf7sVY0-182">
          <mxGeometry relative="1" as="geometry" />
        </mxCell>
        <mxCell id="w8awD3d66yjwIOf7sVY0-179" value="false" style="edgeStyle=orthogonalEdgeStyle;rounded=0;orthogonalLoop=1;jettySize=auto;html=1;exitX=0.5;exitY=1;exitDx=0;exitDy=0;entryX=0.5;entryY=0;entryDx=0;entryDy=0;" edge="1" parent="w8awD3d66yjwIOf7sVY0-152" source="w8awD3d66yjwIOf7sVY0-180" target="w8awD3d66yjwIOf7sVY0-161">
          <mxGeometry relative="1" as="geometry" />
        </mxCell>
        <mxCell id="w8awD3d66yjwIOf7sVY0-180" value="Malloc failed ?" style="shape=hexagon;perimeter=hexagonPerimeter2;whiteSpace=wrap;html=1;fixedSize=1;" vertex="1" parent="w8awD3d66yjwIOf7sVY0-152">
          <mxGeometry x="18" y="560" width="120" height="80" as="geometry" />
        </mxCell>
        <mxCell id="w8awD3d66yjwIOf7sVY0-181" style="edgeStyle=orthogonalEdgeStyle;rounded=0;orthogonalLoop=1;jettySize=auto;html=1;exitX=1;exitY=0.5;exitDx=0;exitDy=0;entryX=0;entryY=0.5;entryDx=0;entryDy=0;" edge="1" parent="w8awD3d66yjwIOf7sVY0-152" source="w8awD3d66yjwIOf7sVY0-182" target="w8awD3d66yjwIOf7sVY0-183">
          <mxGeometry relative="1" as="geometry" />
        </mxCell>
        <mxCell id="w8awD3d66yjwIOf7sVY0-182" value="perror(argv)" style="rounded=0;whiteSpace=wrap;html=1;" vertex="1" parent="w8awD3d66yjwIOf7sVY0-152">
          <mxGeometry x="193" y="570" width="120" height="60" as="geometry" />
        </mxCell>
        <mxCell id="w8awD3d66yjwIOf7sVY0-183" value="Return NULL" style="rounded=1;whiteSpace=wrap;html=1;" vertex="1" parent="w8awD3d66yjwIOf7sVY0-152">
          <mxGeometry x="1070" y="570" width="120" height="60" as="geometry" />
        </mxCell>
        <mxCell id="w8awD3d66yjwIOf7sVY0-184" style="edgeStyle=orthogonalEdgeStyle;rounded=0;orthogonalLoop=1;jettySize=auto;html=1;exitX=1;exitY=0.5;exitDx=0;exitDy=0;entryX=0;entryY=0.5;entryDx=0;entryDy=0;" edge="1" parent="w8awD3d66yjwIOf7sVY0-152" source="w8awD3d66yjwIOf7sVY0-185" target="w8awD3d66yjwIOf7sVY0-188">
          <mxGeometry relative="1" as="geometry" />
        </mxCell>
        <mxCell id="w8awD3d66yjwIOf7sVY0-185" value="malloc(MAX_PATH)" style="rounded=0;whiteSpace=wrap;html=1;" vertex="1" parent="w8awD3d66yjwIOf7sVY0-152">
          <mxGeometry x="200" y="935" width="120" height="60" as="geometry" />
        </mxCell>
        <mxCell id="w8awD3d66yjwIOf7sVY0-186" value="true" style="edgeStyle=orthogonalEdgeStyle;rounded=0;orthogonalLoop=1;jettySize=auto;html=1;exitX=0.5;exitY=1;exitDx=0;exitDy=0;entryX=0.5;entryY=0;entryDx=0;entryDy=0;" edge="1" parent="w8awD3d66yjwIOf7sVY0-152" source="w8awD3d66yjwIOf7sVY0-188" target="w8awD3d66yjwIOf7sVY0-191">
          <mxGeometry relative="1" as="geometry">
            <mxPoint x="450" y="1080" as="targetPoint" />
          </mxGeometry>
        </mxCell>
        <mxCell id="w8awD3d66yjwIOf7sVY0-187" style="edgeStyle=orthogonalEdgeStyle;rounded=0;orthogonalLoop=1;jettySize=auto;html=1;exitX=1;exitY=0.5;exitDx=0;exitDy=0;entryX=0;entryY=0.5;entryDx=0;entryDy=0;" edge="1" parent="w8awD3d66yjwIOf7sVY0-152" source="w8awD3d66yjwIOf7sVY0-188" target="w8awD3d66yjwIOf7sVY0-200">
          <mxGeometry relative="1" as="geometry">
            <mxPoint x="550" y="965" as="targetPoint" />
          </mxGeometry>
        </mxCell>
        <mxCell id="w8awD3d66yjwIOf7sVY0-188" value="malloc failed ?" style="shape=hexagon;perimeter=hexagonPerimeter2;whiteSpace=wrap;html=1;fixedSize=1;" vertex="1" parent="w8awD3d66yjwIOf7sVY0-152">
          <mxGeometry x="360" y="925" width="120" height="80" as="geometry" />
        </mxCell>
        <mxCell id="w8awD3d66yjwIOf7sVY0-189" value="true" style="edgeStyle=orthogonalEdgeStyle;rounded=0;orthogonalLoop=1;jettySize=auto;html=1;exitX=0.5;exitY=1;exitDx=0;exitDy=0;entryX=0.5;entryY=0;entryDx=0;entryDy=0;" edge="1" parent="w8awD3d66yjwIOf7sVY0-152" source="w8awD3d66yjwIOf7sVY0-191" target="w8awD3d66yjwIOf7sVY0-193">
          <mxGeometry relative="1" as="geometry" />
        </mxCell>
        <mxCell id="w8awD3d66yjwIOf7sVY0-190" value="false" style="edgeStyle=orthogonalEdgeStyle;rounded=0;orthogonalLoop=1;jettySize=auto;html=1;exitX=1;exitY=0.5;exitDx=0;exitDy=0;entryX=0;entryY=0.5;entryDx=0;entryDy=0;" edge="1" parent="w8awD3d66yjwIOf7sVY0-152" source="w8awD3d66yjwIOf7sVY0-191" target="w8awD3d66yjwIOf7sVY0-195">
          <mxGeometry relative="1" as="geometry">
            <mxPoint x="600" y="1110" as="targetPoint" />
          </mxGeometry>
        </mxCell>
        <mxCell id="w8awD3d66yjwIOf7sVY0-191" value="while i &amp;gt; 0" style="shape=hexagon;perimeter=hexagonPerimeter2;whiteSpace=wrap;html=1;fixedSize=1;" vertex="1" parent="w8awD3d66yjwIOf7sVY0-152">
          <mxGeometry x="360" y="1070" width="120" height="80" as="geometry" />
        </mxCell>
        <mxCell id="w8awD3d66yjwIOf7sVY0-192" style="edgeStyle=orthogonalEdgeStyle;rounded=0;orthogonalLoop=1;jettySize=auto;html=1;exitX=0;exitY=0.5;exitDx=0;exitDy=0;entryX=0;entryY=0.5;entryDx=0;entryDy=0;" edge="1" parent="w8awD3d66yjwIOf7sVY0-152" source="w8awD3d66yjwIOf7sVY0-193" target="w8awD3d66yjwIOf7sVY0-191">
          <mxGeometry relative="1" as="geometry" />
        </mxCell>
        <mxCell id="w8awD3d66yjwIOf7sVY0-193" value="free(cmd_vector[i--])" style="rounded=0;whiteSpace=wrap;html=1;" vertex="1" parent="w8awD3d66yjwIOf7sVY0-152">
          <mxGeometry x="360" y="1200" width="120" height="60" as="geometry" />
        </mxCell>
        <mxCell id="w8awD3d66yjwIOf7sVY0-194" style="edgeStyle=orthogonalEdgeStyle;rounded=0;orthogonalLoop=1;jettySize=auto;html=1;exitX=0.5;exitY=1;exitDx=0;exitDy=0;entryX=0.5;entryY=0;entryDx=0;entryDy=0;" edge="1" parent="w8awD3d66yjwIOf7sVY0-152" source="w8awD3d66yjwIOf7sVY0-195" target="w8awD3d66yjwIOf7sVY0-197">
          <mxGeometry relative="1" as="geometry" />
        </mxCell>
        <mxCell id="w8awD3d66yjwIOf7sVY0-195" value="free(cmd_vector)" style="rounded=0;whiteSpace=wrap;html=1;" vertex="1" parent="w8awD3d66yjwIOf7sVY0-152">
          <mxGeometry x="550" y="1080" width="120" height="60" as="geometry" />
        </mxCell>
        <mxCell id="w8awD3d66yjwIOf7sVY0-196" style="edgeStyle=orthogonalEdgeStyle;rounded=0;orthogonalLoop=1;jettySize=auto;html=1;exitX=1;exitY=0.5;exitDx=0;exitDy=0;entryX=0;entryY=0.5;entryDx=0;entryDy=0;" edge="1" parent="w8awD3d66yjwIOf7sVY0-152" source="w8awD3d66yjwIOf7sVY0-197" target="w8awD3d66yjwIOf7sVY0-198">
          <mxGeometry relative="1" as="geometry" />
        </mxCell>
        <mxCell id="w8awD3d66yjwIOf7sVY0-197" value="perror(argv)" style="rounded=0;whiteSpace=wrap;html=1;" vertex="1" parent="w8awD3d66yjwIOf7sVY0-152">
          <mxGeometry x="550" y="1180" width="120" height="60" as="geometry" />
        </mxCell>
        <mxCell id="w8awD3d66yjwIOf7sVY0-198" value="Return NULL" style="rounded=1;whiteSpace=wrap;html=1;" vertex="1" parent="w8awD3d66yjwIOf7sVY0-152">
          <mxGeometry x="1070" y="1180" width="120" height="60" as="geometry" />
        </mxCell>
        <mxCell id="w8awD3d66yjwIOf7sVY0-199" style="edgeStyle=orthogonalEdgeStyle;rounded=0;orthogonalLoop=1;jettySize=auto;html=1;exitX=1;exitY=0.5;exitDx=0;exitDy=0;entryX=0;entryY=0.5;entryDx=0;entryDy=0;" edge="1" parent="w8awD3d66yjwIOf7sVY0-152" source="w8awD3d66yjwIOf7sVY0-200" target="w8awD3d66yjwIOf7sVY0-202">
          <mxGeometry relative="1" as="geometry" />
        </mxCell>
        <mxCell id="w8awD3d66yjwIOf7sVY0-200" value="strcpy(cmd_vector[i], token)" style="rounded=0;whiteSpace=wrap;html=1;" vertex="1" parent="w8awD3d66yjwIOf7sVY0-152">
          <mxGeometry x="540" y="935" width="120" height="60" as="geometry" />
        </mxCell>
        <mxCell id="w8awD3d66yjwIOf7sVY0-201" style="edgeStyle=orthogonalEdgeStyle;rounded=0;orthogonalLoop=1;jettySize=auto;html=1;exitX=1;exitY=0.5;exitDx=0;exitDy=0;entryX=0;entryY=0.5;entryDx=0;entryDy=0;" edge="1" parent="w8awD3d66yjwIOf7sVY0-152" source="w8awD3d66yjwIOf7sVY0-202" target="w8awD3d66yjwIOf7sVY0-169">
          <mxGeometry relative="1" as="geometry" />
        </mxCell>
        <mxCell id="w8awD3d66yjwIOf7sVY0-202" value="i++" style="rounded=0;whiteSpace=wrap;html=1;" vertex="1" parent="w8awD3d66yjwIOf7sVY0-152">
          <mxGeometry x="710" y="935" width="120" height="60" as="geometry" />
        </mxCell>
        <mxCell id="w8awD3d66yjwIOf7sVY0-203" value="Return NULL" style="rounded=1;whiteSpace=wrap;html=1;" vertex="1" parent="w8awD3d66yjwIOf7sVY0-152">
          <mxGeometry x="1070" y="1340" width="120" height="60" as="geometry" />
        </mxCell>
        <mxCell id="w8awD3d66yjwIOf7sVY0-204" style="edgeStyle=orthogonalEdgeStyle;rounded=0;orthogonalLoop=1;jettySize=auto;html=1;exitX=1;exitY=0.5;exitDx=0;exitDy=0;entryX=0;entryY=0.5;entryDx=0;entryDy=0;" edge="1" parent="w8awD3d66yjwIOf7sVY0-152" source="w8awD3d66yjwIOf7sVY0-205" target="w8awD3d66yjwIOf7sVY0-203">
          <mxGeometry relative="1" as="geometry" />
        </mxCell>
        <mxCell id="w8awD3d66yjwIOf7sVY0-205" value="free(cmd_vector)" style="rounded=0;whiteSpace=wrap;html=1;" vertex="1" parent="w8awD3d66yjwIOf7sVY0-152">
          <mxGeometry x="230" y="1340" width="120" height="60" as="geometry" />
        </mxCell>
        <mxCell id="w8awD3d66yjwIOf7sVY0-206" value="Return cmd_vector" style="rounded=1;whiteSpace=wrap;html=1;" vertex="1" parent="w8awD3d66yjwIOf7sVY0-152">
          <mxGeometry x="18" y="1480" width="120" height="60" as="geometry" />
        </mxCell>
        <mxCell id="w8awD3d66yjwIOf7sVY0-207" value="int main(argc, argv)" style="swimlane;whiteSpace=wrap;html=1;swimlaneFillColor=default;" vertex="1" collapsed="1" parent="1">
          <mxGeometry x="1700" width="150" height="30" as="geometry">
            <mxRectangle x="1700" width="840" height="3340" as="alternateBounds" />
          </mxGeometry>
        </mxCell>
        <mxCell id="w8awD3d66yjwIOf7sVY0-208" value="start" style="rounded=1;whiteSpace=wrap;html=1;" vertex="1" parent="w8awD3d66yjwIOf7sVY0-207">
          <mxGeometry x="186.86000000000013" y="75" width="120" height="60" as="geometry" />
        </mxCell>
        <mxCell id="w8awD3d66yjwIOf7sVY0-209" value="char *line = NULL (usr input)&lt;br&gt;char **cmd_vector&lt;br&gt;size_t len = 0;&lt;br&gt;int is_interactive [...];&lt;br&gt;int builtin_flag = 0;" style="whiteSpace=wrap;html=1;aspect=fixed;" vertex="1" parent="w8awD3d66yjwIOf7sVY0-207">
          <mxGeometry x="161.86000000000013" y="215" width="170" height="170" as="geometry" />
        </mxCell>
        <mxCell id="w8awD3d66yjwIOf7sVY0-210" style="edgeStyle=orthogonalEdgeStyle;rounded=0;orthogonalLoop=1;jettySize=auto;html=1;exitX=0.5;exitY=1;exitDx=0;exitDy=0;entryX=0.5;entryY=0;entryDx=0;entryDy=0;" edge="1" parent="w8awD3d66yjwIOf7sVY0-207" source="w8awD3d66yjwIOf7sVY0-208" target="w8awD3d66yjwIOf7sVY0-209">
          <mxGeometry relative="1" as="geometry">
            <mxPoint x="246.86000000000013" y="265" as="targetPoint" />
          </mxGeometry>
        </mxCell>
        <mxCell id="w8awD3d66yjwIOf7sVY0-211" style="edgeStyle=orthogonalEdgeStyle;rounded=0;orthogonalLoop=1;jettySize=auto;html=1;exitX=0.5;exitY=1;exitDx=0;exitDy=0;entryX=0.5;entryY=0;entryDx=0;entryDy=0;" edge="1" parent="w8awD3d66yjwIOf7sVY0-207" source="w8awD3d66yjwIOf7sVY0-209" target="w8awD3d66yjwIOf7sVY0-213">
          <mxGeometry relative="1" as="geometry">
            <mxPoint x="246.86000000000013" y="455" as="targetPoint" />
          </mxGeometry>
        </mxCell>
        <mxCell id="w8awD3d66yjwIOf7sVY0-212" value="prompt" style="rounded=0;whiteSpace=wrap;html=1;" vertex="1" parent="w8awD3d66yjwIOf7sVY0-207">
          <mxGeometry x="371.8600000000001" y="703" width="120" height="60" as="geometry" />
        </mxCell>
        <mxCell id="w8awD3d66yjwIOf7sVY0-213" value="while (1)&lt;br&gt;boucle infinie" style="shape=hexagon;perimeter=hexagonPerimeter2;whiteSpace=wrap;html=1;fixedSize=1;" vertex="1" parent="w8awD3d66yjwIOf7sVY0-207">
          <mxGeometry x="186.86000000000013" y="448" width="120" height="80" as="geometry" />
        </mxCell>
        <mxCell id="w8awD3d66yjwIOf7sVY0-214" value="true" style="edgeStyle=orthogonalEdgeStyle;rounded=0;orthogonalLoop=1;jettySize=auto;html=1;exitX=1;exitY=0.5;exitDx=0;exitDy=0;entryX=0.5;entryY=0;entryDx=0;entryDy=0;" edge="1" parent="w8awD3d66yjwIOf7sVY0-207" source="w8awD3d66yjwIOf7sVY0-215" target="w8awD3d66yjwIOf7sVY0-212">
          <mxGeometry relative="1" as="geometry" />
        </mxCell>
        <mxCell id="w8awD3d66yjwIOf7sVY0-215" value="is interactive" style="shape=hexagon;perimeter=hexagonPerimeter2;whiteSpace=wrap;html=1;fixedSize=1;" vertex="1" parent="w8awD3d66yjwIOf7sVY0-207">
          <mxGeometry x="186.86000000000013" y="593" width="120" height="80" as="geometry" />
        </mxCell>
        <mxCell id="w8awD3d66yjwIOf7sVY0-216" value="true" style="edgeStyle=orthogonalEdgeStyle;rounded=0;orthogonalLoop=1;jettySize=auto;html=1;exitX=0.5;exitY=1;exitDx=0;exitDy=0;entryX=0.5;entryY=0;entryDx=0;entryDy=0;" edge="1" parent="w8awD3d66yjwIOf7sVY0-207" source="w8awD3d66yjwIOf7sVY0-213" target="w8awD3d66yjwIOf7sVY0-215">
          <mxGeometry relative="1" as="geometry" />
        </mxCell>
        <mxCell id="w8awD3d66yjwIOf7sVY0-217" value="free(char *line)" style="rounded=0;whiteSpace=wrap;html=1;" vertex="1" parent="w8awD3d66yjwIOf7sVY0-207">
          <mxGeometry x="521.8600000000001" y="458" width="120" height="60" as="geometry" />
        </mxCell>
        <mxCell id="w8awD3d66yjwIOf7sVY0-218" value="false" style="edgeStyle=orthogonalEdgeStyle;rounded=0;orthogonalLoop=1;jettySize=auto;html=1;exitX=1;exitY=0.5;exitDx=0;exitDy=0;entryX=0;entryY=0.5;entryDx=0;entryDy=0;" edge="1" parent="w8awD3d66yjwIOf7sVY0-207" source="w8awD3d66yjwIOf7sVY0-213" target="w8awD3d66yjwIOf7sVY0-217">
          <mxGeometry relative="1" as="geometry">
            <mxPoint x="641.8600000000001" y="645" as="targetPoint" />
          </mxGeometry>
        </mxCell>
        <mxCell id="w8awD3d66yjwIOf7sVY0-219" value="Return (0)" style="rounded=1;whiteSpace=wrap;html=1;" vertex="1" parent="w8awD3d66yjwIOf7sVY0-207">
          <mxGeometry x="711.8600000000001" y="458" width="120" height="60" as="geometry" />
        </mxCell>
        <mxCell id="w8awD3d66yjwIOf7sVY0-220" style="edgeStyle=orthogonalEdgeStyle;rounded=0;orthogonalLoop=1;jettySize=auto;html=1;exitX=1;exitY=0.5;exitDx=0;exitDy=0;entryX=0;entryY=0.5;entryDx=0;entryDy=0;" edge="1" parent="w8awD3d66yjwIOf7sVY0-207" source="w8awD3d66yjwIOf7sVY0-217" target="w8awD3d66yjwIOf7sVY0-219">
          <mxGeometry relative="1" as="geometry" />
        </mxCell>
        <mxCell id="w8awD3d66yjwIOf7sVY0-221" value="fflush" style="rounded=0;whiteSpace=wrap;html=1;" vertex="1" parent="w8awD3d66yjwIOf7sVY0-207">
          <mxGeometry x="371.8600000000001" y="793" width="120" height="60" as="geometry" />
        </mxCell>
        <mxCell id="w8awD3d66yjwIOf7sVY0-222" style="edgeStyle=orthogonalEdgeStyle;rounded=0;orthogonalLoop=1;jettySize=auto;html=1;exitX=0.5;exitY=1;exitDx=0;exitDy=0;entryX=0.5;entryY=0;entryDx=0;entryDy=0;" edge="1" parent="w8awD3d66yjwIOf7sVY0-207" source="w8awD3d66yjwIOf7sVY0-212" target="w8awD3d66yjwIOf7sVY0-221">
          <mxGeometry relative="1" as="geometry" />
        </mxCell>
        <mxCell id="w8awD3d66yjwIOf7sVY0-223" value="Failed to read usr input" style="shape=hexagon;perimeter=hexagonPerimeter2;whiteSpace=wrap;html=1;fixedSize=1;" vertex="1" parent="w8awD3d66yjwIOf7sVY0-207">
          <mxGeometry x="186.86000000000013" y="933" width="120" height="80" as="geometry" />
        </mxCell>
        <mxCell id="w8awD3d66yjwIOf7sVY0-224" value="false" style="edgeStyle=orthogonalEdgeStyle;rounded=0;orthogonalLoop=1;jettySize=auto;html=1;exitX=0.5;exitY=1;exitDx=0;exitDy=0;entryX=0.5;entryY=0;entryDx=0;entryDy=0;" edge="1" parent="w8awD3d66yjwIOf7sVY0-207" source="w8awD3d66yjwIOf7sVY0-215" target="w8awD3d66yjwIOf7sVY0-223">
          <mxGeometry relative="1" as="geometry">
            <mxPoint x="246.86000000000013" y="1085" as="targetPoint" />
          </mxGeometry>
        </mxCell>
        <mxCell id="w8awD3d66yjwIOf7sVY0-225" style="edgeStyle=orthogonalEdgeStyle;rounded=0;orthogonalLoop=1;jettySize=auto;html=1;exitX=0.5;exitY=1;exitDx=0;exitDy=0;entryX=0.5;entryY=0;entryDx=0;entryDy=0;" edge="1" parent="w8awD3d66yjwIOf7sVY0-207" source="w8awD3d66yjwIOf7sVY0-221" target="w8awD3d66yjwIOf7sVY0-223">
          <mxGeometry relative="1" as="geometry" />
        </mxCell>
        <mxCell id="w8awD3d66yjwIOf7sVY0-226" value="If interactive" style="shape=hexagon;perimeter=hexagonPerimeter2;whiteSpace=wrap;html=1;fixedSize=1;" vertex="1" parent="w8awD3d66yjwIOf7sVY0-207">
          <mxGeometry x="331.8600000000001" y="1113" width="120" height="80" as="geometry" />
        </mxCell>
        <mxCell id="w8awD3d66yjwIOf7sVY0-227" value="true" style="edgeStyle=orthogonalEdgeStyle;rounded=0;orthogonalLoop=1;jettySize=auto;html=1;exitX=1;exitY=0.5;exitDx=0;exitDy=0;entryX=0.5;entryY=0;entryDx=0;entryDy=0;" edge="1" parent="w8awD3d66yjwIOf7sVY0-207" source="w8awD3d66yjwIOf7sVY0-223" target="w8awD3d66yjwIOf7sVY0-226">
          <mxGeometry relative="1" as="geometry">
            <mxPoint x="511.8600000000001" y="1205" as="targetPoint" />
          </mxGeometry>
        </mxCell>
        <mxCell id="w8awD3d66yjwIOf7sVY0-228" value="print \n" style="rounded=0;whiteSpace=wrap;html=1;" vertex="1" parent="w8awD3d66yjwIOf7sVY0-207">
          <mxGeometry x="331.8600000000001" y="1253" width="120" height="60" as="geometry" />
        </mxCell>
        <mxCell id="w8awD3d66yjwIOf7sVY0-229" value="true" style="edgeStyle=orthogonalEdgeStyle;rounded=0;orthogonalLoop=1;jettySize=auto;html=1;exitX=0.5;exitY=1;exitDx=0;exitDy=0;entryX=0.5;entryY=0;entryDx=0;entryDy=0;" edge="1" parent="w8awD3d66yjwIOf7sVY0-207" source="w8awD3d66yjwIOf7sVY0-226" target="w8awD3d66yjwIOf7sVY0-228">
          <mxGeometry relative="1" as="geometry" />
        </mxCell>
        <mxCell id="w8awD3d66yjwIOf7sVY0-230" style="edgeStyle=orthogonalEdgeStyle;rounded=0;orthogonalLoop=1;jettySize=auto;html=1;exitX=1;exitY=0.5;exitDx=0;exitDy=0;entryX=0.5;entryY=1;entryDx=0;entryDy=0;" edge="1" parent="w8awD3d66yjwIOf7sVY0-207" source="w8awD3d66yjwIOf7sVY0-231" target="w8awD3d66yjwIOf7sVY0-217">
          <mxGeometry relative="1" as="geometry" />
        </mxCell>
        <mxCell id="w8awD3d66yjwIOf7sVY0-231" value="break" style="rounded=0;whiteSpace=wrap;html=1;" vertex="1" parent="w8awD3d66yjwIOf7sVY0-207">
          <mxGeometry x="421.8600000000001" y="1373" width="120" height="60" as="geometry" />
        </mxCell>
        <mxCell id="w8awD3d66yjwIOf7sVY0-232" value="False" style="edgeStyle=orthogonalEdgeStyle;rounded=0;orthogonalLoop=1;jettySize=auto;html=1;exitX=1;exitY=0.5;exitDx=0;exitDy=0;entryX=0.5;entryY=0;entryDx=0;entryDy=0;" edge="1" parent="w8awD3d66yjwIOf7sVY0-207" source="w8awD3d66yjwIOf7sVY0-226" target="w8awD3d66yjwIOf7sVY0-231">
          <mxGeometry relative="1" as="geometry" />
        </mxCell>
        <mxCell id="w8awD3d66yjwIOf7sVY0-233" style="edgeStyle=orthogonalEdgeStyle;rounded=0;orthogonalLoop=1;jettySize=auto;html=1;exitX=0.5;exitY=1;exitDx=0;exitDy=0;entryX=0;entryY=0.5;entryDx=0;entryDy=0;" edge="1" parent="w8awD3d66yjwIOf7sVY0-207" source="w8awD3d66yjwIOf7sVY0-228" target="w8awD3d66yjwIOf7sVY0-231">
          <mxGeometry relative="1" as="geometry" />
        </mxCell>
        <mxCell id="w8awD3d66yjwIOf7sVY0-234" value="false" style="edgeStyle=orthogonalEdgeStyle;rounded=0;orthogonalLoop=1;jettySize=auto;html=1;exitX=0.5;exitY=1;exitDx=0;exitDy=0;entryX=0.5;entryY=0;entryDx=0;entryDy=0;" edge="1" parent="w8awD3d66yjwIOf7sVY0-207" source="w8awD3d66yjwIOf7sVY0-223" target="w8awD3d66yjwIOf7sVY0-244">
          <mxGeometry relative="1" as="geometry">
            <mxPoint x="246.86000000000013" y="1675" as="targetPoint" />
          </mxGeometry>
        </mxCell>
        <mxCell id="w8awD3d66yjwIOf7sVY0-235" value="true" style="edgeStyle=orthogonalEdgeStyle;rounded=0;orthogonalLoop=1;jettySize=auto;html=1;exitX=1;exitY=0.5;exitDx=0;exitDy=0;" edge="1" parent="w8awD3d66yjwIOf7sVY0-207">
          <mxGeometry relative="1" as="geometry">
            <mxPoint x="691.8600000000001" y="1955" as="targetPoint" />
            <mxPoint x="306.8600000000001" y="1715" as="sourcePoint" />
          </mxGeometry>
        </mxCell>
        <mxCell id="w8awD3d66yjwIOf7sVY0-236" value="" style="group" vertex="1" connectable="0" parent="w8awD3d66yjwIOf7sVY0-207">
          <mxGeometry x="410.0000000000001" y="1640" width="240" height="210" as="geometry" />
        </mxCell>
        <mxCell id="w8awD3d66yjwIOf7sVY0-237" value="" style="group" vertex="1" connectable="0" parent="w8awD3d66yjwIOf7sVY0-236">
          <mxGeometry width="240" height="150" as="geometry" />
        </mxCell>
        <mxCell id="w8awD3d66yjwIOf7sVY0-238" value="Accepts" style="rounded=0;whiteSpace=wrap;html=1;" vertex="1" parent="w8awD3d66yjwIOf7sVY0-237">
          <mxGeometry y="30" width="120" height="60" as="geometry" />
        </mxCell>
        <mxCell id="w8awD3d66yjwIOf7sVY0-239" value="char **cmd_vector" style="rounded=0;whiteSpace=wrap;html=1;" vertex="1" parent="w8awD3d66yjwIOf7sVY0-237">
          <mxGeometry x="120" y="90" width="120" height="60" as="geometry" />
        </mxCell>
        <mxCell id="w8awD3d66yjwIOf7sVY0-240" value="Returns" style="rounded=0;whiteSpace=wrap;html=1;" vertex="1" parent="w8awD3d66yjwIOf7sVY0-237">
          <mxGeometry y="90" width="120" height="60" as="geometry" />
        </mxCell>
        <mxCell id="w8awD3d66yjwIOf7sVY0-241" value="char *line (usr input - \n)&lt;br&gt;char *argv (CLI args)" style="rounded=0;whiteSpace=wrap;html=1;" vertex="1" parent="w8awD3d66yjwIOf7sVY0-237">
          <mxGeometry x="120" y="30" width="120" height="60" as="geometry" />
        </mxCell>
        <mxCell id="w8awD3d66yjwIOf7sVY0-242" value="char **_tokenize(char *line, char *argv)" style="rounded=0;whiteSpace=wrap;html=1;" vertex="1" parent="w8awD3d66yjwIOf7sVY0-237">
          <mxGeometry width="240" height="30" as="geometry" />
        </mxCell>
        <mxCell id="w8awD3d66yjwIOf7sVY0-243" style="edgeStyle=orthogonalEdgeStyle;rounded=0;orthogonalLoop=1;jettySize=auto;html=1;exitX=0.5;exitY=1;exitDx=0;exitDy=0;entryX=0.5;entryY=0;entryDx=0;entryDy=0;" edge="1" parent="w8awD3d66yjwIOf7sVY0-207" source="w8awD3d66yjwIOf7sVY0-244" target="w8awD3d66yjwIOf7sVY0-245">
          <mxGeometry relative="1" as="geometry" />
        </mxCell>
        <mxCell id="w8awD3d66yjwIOf7sVY0-244" value="Remove final \n from usr input buffer" style="rounded=0;whiteSpace=wrap;html=1;" vertex="1" parent="w8awD3d66yjwIOf7sVY0-207">
          <mxGeometry x="186.86" y="1470" width="120" height="60" as="geometry" />
        </mxCell>
        <mxCell id="w8awD3d66yjwIOf7sVY0-245" value="initialisation char ** cmd_vector" style="rounded=0;whiteSpace=wrap;html=1;" vertex="1" parent="w8awD3d66yjwIOf7sVY0-207">
          <mxGeometry x="186.86000000000013" y="1680" width="120" height="60" as="geometry" />
        </mxCell>
        <mxCell id="w8awD3d66yjwIOf7sVY0-246" style="edgeStyle=orthogonalEdgeStyle;rounded=0;orthogonalLoop=1;jettySize=auto;html=1;entryX=1;entryY=0.5;entryDx=0;entryDy=0;startArrow=classic;startFill=1;" edge="1" parent="w8awD3d66yjwIOf7sVY0-207" target="w8awD3d66yjwIOf7sVY0-245">
          <mxGeometry relative="1" as="geometry">
            <mxPoint x="410" y="1710" as="sourcePoint" />
          </mxGeometry>
        </mxCell>
        <mxCell id="w8awD3d66yjwIOf7sVY0-247" value="true" style="edgeStyle=orthogonalEdgeStyle;rounded=0;orthogonalLoop=1;jettySize=auto;html=1;exitX=0;exitY=0.5;exitDx=0;exitDy=0;entryX=0;entryY=0.5;entryDx=0;entryDy=0;" edge="1" parent="w8awD3d66yjwIOf7sVY0-207" source="w8awD3d66yjwIOf7sVY0-249" target="w8awD3d66yjwIOf7sVY0-213">
          <mxGeometry x="-0.9405" relative="1" as="geometry">
            <mxPoint x="30" y="1740" as="targetPoint" />
            <Array as="points">
              <mxPoint x="90" y="1870" />
              <mxPoint x="90" y="488" />
            </Array>
            <mxPoint as="offset" />
          </mxGeometry>
        </mxCell>
        <mxCell id="w8awD3d66yjwIOf7sVY0-248" style="edgeStyle=orthogonalEdgeStyle;rounded=0;orthogonalLoop=1;jettySize=auto;html=1;exitX=0.5;exitY=1;exitDx=0;exitDy=0;entryX=0.5;entryY=0;entryDx=0;entryDy=0;" edge="1" parent="w8awD3d66yjwIOf7sVY0-207" source="w8awD3d66yjwIOf7sVY0-249" target="w8awD3d66yjwIOf7sVY0-252">
          <mxGeometry relative="1" as="geometry">
            <mxPoint x="247" y="1970" as="targetPoint" />
          </mxGeometry>
        </mxCell>
        <mxCell id="w8awD3d66yjwIOf7sVY0-249" value="!cmd_vector ?" style="shape=hexagon;perimeter=hexagonPerimeter2;whiteSpace=wrap;html=1;fixedSize=1;" vertex="1" parent="w8awD3d66yjwIOf7sVY0-207">
          <mxGeometry x="186.8599999999999" y="1830" width="120" height="80" as="geometry" />
        </mxCell>
        <mxCell id="w8awD3d66yjwIOf7sVY0-250" style="edgeStyle=orthogonalEdgeStyle;rounded=0;orthogonalLoop=1;jettySize=auto;html=1;exitX=0.5;exitY=1;exitDx=0;exitDy=0;" edge="1" parent="w8awD3d66yjwIOf7sVY0-207" source="w8awD3d66yjwIOf7sVY0-245" target="w8awD3d66yjwIOf7sVY0-249">
          <mxGeometry relative="1" as="geometry">
            <mxPoint x="247" y="1870" as="targetPoint" />
          </mxGeometry>
        </mxCell>
        <mxCell id="w8awD3d66yjwIOf7sVY0-251" value="false (command)" style="edgeStyle=orthogonalEdgeStyle;rounded=0;orthogonalLoop=1;jettySize=auto;html=1;exitX=0.5;exitY=1;exitDx=0;exitDy=0;entryX=0.5;entryY=0;entryDx=0;entryDy=0;" edge="1" parent="w8awD3d66yjwIOf7sVY0-207" source="w8awD3d66yjwIOf7sVY0-252" target="w8awD3d66yjwIOf7sVY0-260">
          <mxGeometry relative="1" as="geometry">
            <mxPoint x="246.86000000000013" y="2140" as="targetPoint" />
          </mxGeometry>
        </mxCell>
        <mxCell id="w8awD3d66yjwIOf7sVY0-252" value="Usr input = absolute path ?" style="shape=hexagon;perimeter=hexagonPerimeter2;whiteSpace=wrap;html=1;fixedSize=1;" vertex="1" parent="w8awD3d66yjwIOf7sVY0-207">
          <mxGeometry x="186.86000000000013" y="1970" width="120" height="80" as="geometry" />
        </mxCell>
        <mxCell id="w8awD3d66yjwIOf7sVY0-253" value="" style="group" vertex="1" connectable="0" parent="w8awD3d66yjwIOf7sVY0-207">
          <mxGeometry x="126.86000000000013" y="2130" width="240" height="210" as="geometry" />
        </mxCell>
        <mxCell id="w8awD3d66yjwIOf7sVY0-254" value="Invocation" style="rounded=0;whiteSpace=wrap;html=1;" vertex="1" parent="w8awD3d66yjwIOf7sVY0-253">
          <mxGeometry y="150" width="120" height="60" as="geometry" />
        </mxCell>
        <mxCell id="w8awD3d66yjwIOf7sVY0-255" value="" style="group" vertex="1" connectable="0" parent="w8awD3d66yjwIOf7sVY0-253">
          <mxGeometry width="240" height="150" as="geometry" />
        </mxCell>
        <mxCell id="w8awD3d66yjwIOf7sVY0-256" value="Accepts" style="rounded=0;whiteSpace=wrap;html=1;" vertex="1" parent="w8awD3d66yjwIOf7sVY0-255">
          <mxGeometry y="30" width="120" height="60" as="geometry" />
        </mxCell>
        <mxCell id="w8awD3d66yjwIOf7sVY0-257" value="void" style="rounded=0;whiteSpace=wrap;html=1;" vertex="1" parent="w8awD3d66yjwIOf7sVY0-255">
          <mxGeometry x="120" y="90" width="120" height="60" as="geometry" />
        </mxCell>
        <mxCell id="w8awD3d66yjwIOf7sVY0-258" value="Returns" style="rounded=0;whiteSpace=wrap;html=1;" vertex="1" parent="w8awD3d66yjwIOf7sVY0-255">
          <mxGeometry y="90" width="120" height="60" as="geometry" />
        </mxCell>
        <mxCell id="w8awD3d66yjwIOf7sVY0-259" value="int *builtin_flag&lt;br&gt;char **cmd_vector&lt;br&gt;char *line" style="rounded=0;whiteSpace=wrap;html=1;" vertex="1" parent="w8awD3d66yjwIOf7sVY0-255">
          <mxGeometry x="120" y="30" width="120" height="60" as="geometry" />
        </mxCell>
        <mxCell id="w8awD3d66yjwIOf7sVY0-260" value="void is_builtin(int *builtin_flag, char **cmd_vector, char *line)" style="rounded=0;whiteSpace=wrap;html=1;" vertex="1" parent="w8awD3d66yjwIOf7sVY0-255">
          <mxGeometry width="240" height="30" as="geometry" />
        </mxCell>
        <mxCell id="w8awD3d66yjwIOf7sVY0-261" value="is_builtin(&amp;amp;builtin_flag, cmd_vector, line)" style="rounded=0;whiteSpace=wrap;html=1;" vertex="1" parent="w8awD3d66yjwIOf7sVY0-253">
          <mxGeometry x="120" y="150" width="120" height="60" as="geometry" />
        </mxCell>
        <mxCell id="w8awD3d66yjwIOf7sVY0-262" value="true" style="edgeStyle=orthogonalEdgeStyle;rounded=0;orthogonalLoop=1;jettySize=auto;html=1;exitX=0;exitY=0.5;exitDx=0;exitDy=0;entryX=0;entryY=1;entryDx=0;entryDy=0;" edge="1" parent="w8awD3d66yjwIOf7sVY0-207" source="w8awD3d66yjwIOf7sVY0-264" target="w8awD3d66yjwIOf7sVY0-283">
          <mxGeometry x="-0.8098" relative="1" as="geometry">
            <mxPoint x="440" y="2870" as="targetPoint" />
            <Array as="points">
              <mxPoint x="50" y="2450" />
              <mxPoint x="50" y="3180" />
            </Array>
            <mxPoint as="offset" />
          </mxGeometry>
        </mxCell>
        <mxCell id="w8awD3d66yjwIOf7sVY0-263" value="false" style="edgeStyle=orthogonalEdgeStyle;rounded=0;orthogonalLoop=1;jettySize=auto;html=1;exitX=0.5;exitY=1;exitDx=0;exitDy=0;entryX=0.5;entryY=0;entryDx=0;entryDy=0;" edge="1" parent="w8awD3d66yjwIOf7sVY0-207" source="w8awD3d66yjwIOf7sVY0-264" target="w8awD3d66yjwIOf7sVY0-273">
          <mxGeometry relative="1" as="geometry">
            <mxPoint x="247" y="2560" as="targetPoint" />
          </mxGeometry>
        </mxCell>
        <mxCell id="w8awD3d66yjwIOf7sVY0-264" value="is built-in ?" style="shape=hexagon;perimeter=hexagonPerimeter2;whiteSpace=wrap;html=1;fixedSize=1;" vertex="1" parent="w8awD3d66yjwIOf7sVY0-207">
          <mxGeometry x="186.86000000000013" y="2410" width="120" height="80" as="geometry" />
        </mxCell>
        <mxCell id="w8awD3d66yjwIOf7sVY0-265" value="true" style="edgeStyle=orthogonalEdgeStyle;rounded=0;orthogonalLoop=1;jettySize=auto;html=1;exitX=1;exitY=0.5;exitDx=0;exitDy=0;entryX=1;entryY=0.5;entryDx=0;entryDy=0;" edge="1" parent="w8awD3d66yjwIOf7sVY0-207" source="w8awD3d66yjwIOf7sVY0-252" target="w8awD3d66yjwIOf7sVY0-277">
          <mxGeometry x="-0.8915" relative="1" as="geometry">
            <mxPoint x="580" y="2900" as="targetPoint" />
            <Array as="points">
              <mxPoint x="510" y="2010" />
              <mxPoint x="510" y="2960" />
            </Array>
            <mxPoint as="offset" />
          </mxGeometry>
        </mxCell>
        <mxCell id="w8awD3d66yjwIOf7sVY0-266" style="edgeStyle=orthogonalEdgeStyle;rounded=0;orthogonalLoop=1;jettySize=auto;html=1;exitX=0;exitY=1;exitDx=0;exitDy=0;entryX=0.5;entryY=0;entryDx=0;entryDy=0;" edge="1" parent="w8awD3d66yjwIOf7sVY0-207" source="w8awD3d66yjwIOf7sVY0-261" target="w8awD3d66yjwIOf7sVY0-264">
          <mxGeometry relative="1" as="geometry" />
        </mxCell>
        <mxCell id="w8awD3d66yjwIOf7sVY0-267" value="" style="group" vertex="1" connectable="0" parent="w8awD3d66yjwIOf7sVY0-207">
          <mxGeometry x="126.86000000000013" y="2560" width="240" height="210" as="geometry" />
        </mxCell>
        <mxCell id="w8awD3d66yjwIOf7sVY0-268" value="" style="group" vertex="1" connectable="0" parent="w8awD3d66yjwIOf7sVY0-267">
          <mxGeometry width="240" height="150" as="geometry" />
        </mxCell>
        <mxCell id="w8awD3d66yjwIOf7sVY0-269" value="Accepts" style="rounded=0;whiteSpace=wrap;html=1;" vertex="1" parent="w8awD3d66yjwIOf7sVY0-268">
          <mxGeometry y="30" width="120" height="60" as="geometry" />
        </mxCell>
        <mxCell id="w8awD3d66yjwIOf7sVY0-270" value="void" style="rounded=0;whiteSpace=wrap;html=1;" vertex="1" parent="w8awD3d66yjwIOf7sVY0-268">
          <mxGeometry x="120" y="90" width="120" height="60" as="geometry" />
        </mxCell>
        <mxCell id="w8awD3d66yjwIOf7sVY0-271" value="Returns" style="rounded=0;whiteSpace=wrap;html=1;" vertex="1" parent="w8awD3d66yjwIOf7sVY0-268">
          <mxGeometry y="90" width="120" height="60" as="geometry" />
        </mxCell>
        <mxCell id="w8awD3d66yjwIOf7sVY0-272" value="char *cmd_vector, char *argv" style="rounded=0;whiteSpace=wrap;html=1;" vertex="1" parent="w8awD3d66yjwIOf7sVY0-268">
          <mxGeometry x="120" y="30" width="120" height="60" as="geometry" />
        </mxCell>
        <mxCell id="w8awD3d66yjwIOf7sVY0-273" value="void check_for_exe_in_path(char *cmd_vector_item, char *argv)" style="rounded=0;whiteSpace=wrap;html=1;" vertex="1" parent="w8awD3d66yjwIOf7sVY0-268">
          <mxGeometry width="240" height="30" as="geometry" />
        </mxCell>
        <mxCell id="w8awD3d66yjwIOf7sVY0-274" value="" style="group" vertex="1" connectable="0" parent="w8awD3d66yjwIOf7sVY0-207">
          <mxGeometry x="126.86000000000013" y="2840" width="240" height="210" as="geometry" />
        </mxCell>
        <mxCell id="w8awD3d66yjwIOf7sVY0-275" value="" style="group" vertex="1" connectable="0" parent="w8awD3d66yjwIOf7sVY0-274">
          <mxGeometry width="240" height="150" as="geometry" />
        </mxCell>
        <mxCell id="w8awD3d66yjwIOf7sVY0-276" value="Accepts" style="rounded=0;whiteSpace=wrap;html=1;" vertex="1" parent="w8awD3d66yjwIOf7sVY0-275">
          <mxGeometry y="30" width="120" height="60" as="geometry" />
        </mxCell>
        <mxCell id="w8awD3d66yjwIOf7sVY0-277" value="void" style="rounded=0;whiteSpace=wrap;html=1;" vertex="1" parent="w8awD3d66yjwIOf7sVY0-275">
          <mxGeometry x="120" y="90" width="120" height="60" as="geometry" />
        </mxCell>
        <mxCell id="w8awD3d66yjwIOf7sVY0-278" value="Returns" style="rounded=0;whiteSpace=wrap;html=1;" vertex="1" parent="w8awD3d66yjwIOf7sVY0-275">
          <mxGeometry y="90" width="120" height="60" as="geometry" />
        </mxCell>
        <mxCell id="w8awD3d66yjwIOf7sVY0-279" value="char **cmd_vector&lt;br&gt;char *argv" style="rounded=0;whiteSpace=wrap;html=1;" vertex="1" parent="w8awD3d66yjwIOf7sVY0-275">
          <mxGeometry x="120" y="30" width="120" height="60" as="geometry" />
        </mxCell>
        <mxCell id="w8awD3d66yjwIOf7sVY0-280" value="void exec_cmd(char **cmd_vector, char *argv)" style="rounded=0;whiteSpace=wrap;html=1;" vertex="1" parent="w8awD3d66yjwIOf7sVY0-275">
          <mxGeometry width="240" height="30" as="geometry" />
        </mxCell>
        <mxCell id="w8awD3d66yjwIOf7sVY0-281" style="edgeStyle=orthogonalEdgeStyle;rounded=0;orthogonalLoop=1;jettySize=auto;html=1;exitX=1;exitY=1;exitDx=0;exitDy=0;entryX=0.5;entryY=0;entryDx=0;entryDy=0;" edge="1" parent="w8awD3d66yjwIOf7sVY0-207" source="w8awD3d66yjwIOf7sVY0-271" target="w8awD3d66yjwIOf7sVY0-280">
          <mxGeometry relative="1" as="geometry">
            <mxPoint x="247" y="2900" as="targetPoint" />
            <mxPoint x="246.86000000000013" y="2770" as="sourcePoint" />
          </mxGeometry>
        </mxCell>
        <mxCell id="w8awD3d66yjwIOf7sVY0-282" value="" style="group" vertex="1" connectable="0" parent="w8awD3d66yjwIOf7sVY0-207">
          <mxGeometry x="126.86" y="3090" width="240" height="150" as="geometry" />
        </mxCell>
        <mxCell id="w8awD3d66yjwIOf7sVY0-283" value="Accepts" style="rounded=0;whiteSpace=wrap;html=1;" vertex="1" parent="w8awD3d66yjwIOf7sVY0-282">
          <mxGeometry y="30" width="120" height="60" as="geometry" />
        </mxCell>
        <mxCell id="w8awD3d66yjwIOf7sVY0-284" value="void" style="rounded=0;whiteSpace=wrap;html=1;" vertex="1" parent="w8awD3d66yjwIOf7sVY0-282">
          <mxGeometry x="120" y="90" width="120" height="60" as="geometry" />
        </mxCell>
        <mxCell id="w8awD3d66yjwIOf7sVY0-285" value="Returns" style="rounded=0;whiteSpace=wrap;html=1;" vertex="1" parent="w8awD3d66yjwIOf7sVY0-282">
          <mxGeometry y="90" width="120" height="60" as="geometry" />
        </mxCell>
        <mxCell id="w8awD3d66yjwIOf7sVY0-286" value="char **cmd_vector" style="rounded=0;whiteSpace=wrap;html=1;" vertex="1" parent="w8awD3d66yjwIOf7sVY0-282">
          <mxGeometry x="120" y="30" width="120" height="60" as="geometry" />
        </mxCell>
        <mxCell id="w8awD3d66yjwIOf7sVY0-287" value="void free_cmd_vector(char **cmd_vector)" style="rounded=0;whiteSpace=wrap;html=1;" vertex="1" parent="w8awD3d66yjwIOf7sVY0-282">
          <mxGeometry width="240" height="30" as="geometry" />
        </mxCell>
        <mxCell id="w8awD3d66yjwIOf7sVY0-288" style="edgeStyle=orthogonalEdgeStyle;rounded=0;orthogonalLoop=1;jettySize=auto;html=1;exitX=0;exitY=1;exitDx=0;exitDy=0;entryX=0.5;entryY=0;entryDx=0;entryDy=0;" edge="1" parent="w8awD3d66yjwIOf7sVY0-207" source="w8awD3d66yjwIOf7sVY0-277" target="w8awD3d66yjwIOf7sVY0-287">
          <mxGeometry relative="1" as="geometry" />
        </mxCell>
        <mxCell id="w8awD3d66yjwIOf7sVY0-289" style="edgeStyle=orthogonalEdgeStyle;rounded=0;orthogonalLoop=1;jettySize=auto;html=1;exitX=1;exitY=1;exitDx=0;exitDy=0;entryX=0;entryY=0.5;entryDx=0;entryDy=0;" edge="1" parent="w8awD3d66yjwIOf7sVY0-207" source="w8awD3d66yjwIOf7sVY0-285" target="w8awD3d66yjwIOf7sVY0-213">
          <mxGeometry relative="1" as="geometry">
            <Array as="points">
              <mxPoint x="247" y="3260" />
              <mxPoint x="20" y="3260" />
              <mxPoint x="20" y="488" />
            </Array>
          </mxGeometry>
        </mxCell>
      </root>
    </mxGraphModel>
  </diagram>
</mxfile>
